<mxfile host="app.diagrams.net" agent="Mozilla/5.0 (X11; Linux x86_64) AppleWebKit/537.36 (KHTML, like Gecko) Chrome/138.0.0.0 Safari/537.36" version="24.7.17">
  <diagram name="Page-1" id="4oScgwUIWwtXOKSaKAU1">
    <mxGraphModel dx="1566" dy="872" grid="1" gridSize="10" guides="1" tooltips="1" connect="1" arrows="1" fold="1" page="1" pageScale="1" pageWidth="850" pageHeight="1100" math="0" shadow="0">
      <root>
        <mxCell id="0" />
        <mxCell id="1" parent="0" />
        <mxCell id="IIDY4cQQyGSsEYxzER7c-15" value="" style="shape=image;verticalLabelPosition=bottom;labelBackgroundColor=default;verticalAlign=top;aspect=fixed;imageAspect=0;image=data:image/png,iVBORw0KGgoAAAANSUhEUgAAASEAAAFWCAYAAAAmOitiAAABUmlDQ1BpY2MAACiRdZBPSwJRFMWPMWZUVFa0inBnkUWMQbY0owgkxBSs3czTVBjHx8xERbRo5yJa9QFa9AFa1KZF4CaClkFEqyCifQs3/Xnd51Rq0YXL/XE4XM69QJuicW4oAEqmYyUX5wKZ1bWA7xledKAXA4hozObRRCJOFnzP1qrdwiPnzYTcdbI3v/N4X+wJjl0eL/v1zF9/S3Vmczaj+UYdYtxyAM8ocWLT4ZK3iActCkW8Lznv8pFk3eXTuieVjBFfEfexgpYlvpM79SY938QlY4N9ZZDpu3NmekXq1MOIYwFhqEghjQhm/vFO170xlMGxDQtF5FGAgwCipHAYyBEvwQTDJELEKqaow/LHv3/X0Hb7gdkhgvOGluTA2QjFO2hoQcrgvwaqT1yztJ+PemqKvR5WXe6qAt6KEC8PgK8d+BgX4vVQiPcKoNCtF6FPfNVfJDOpfjMAAAAgY0hSTQAAeiYAAICEAAD6AAAAgOgAAHUwAADqYAAAOpgAABdwnLpRPAAAAAZiS0dEAP8A/wD/oL2nkwAAAAlwSFlzAAAWJQAAFiUBSVIk8AAAAAd0SU1FB+kHCAwLN9hYkbUAAAFZelRYdFJhdyBwcm9maWxlIHR5cGUgeG1wAAAokYVTW3KDMAz81yl6BCPJkjkOxfZfZvrZ43dlaAghk6AhAb12tRb0e/uhr7g0J5LViyxerHqyatnVJk7xbqs1l4hJZbbJ1LqxZVk2/z27M3Oiow2c31GSi9acOKlYdxRyEuMmadwsLS2cwkCB0dxkyaxKak/4WzA4FFdYkgWY3cfFzZHEbUA4d5lkDuNOkoThYPzWrQn+xWe0BW0vXAMgwgeXZ0aqlsnFBI55jDZDhQaGewJ0YWBDiWAIIU6NHs0LHUNBuoJWL8YanNohN56hn1VE9poYbRoi9iv1/wHuAEtOYF4s25pnDf44twCJSciaNEjmuFnWA+N9WVSdYektbnnVAJAKszMsfSr7OG5GbnYmHbLt5Sotb6eY93YFp6ZPI++l50q6bgf3x/24rsfjbh+5FOutFsHhvnx3EaE/3mbWjXkxnlkAAHeySURBVHja7Z13eFTV1off6em9EBIICUmAAAFCkyKCNAvFglhAQfSKHRXhIiriFQsqNlTUq1dBUYogoiiConQIEAgQEpKQECC9ZzLJ9P39EXM+IqCUhJkJ532eecTJzJm1z8z5nb3XXkUhhBDIyMjIOAilow2QkZG5spFFSEZGxqHIIiQjI+NQ1I42QMa50ev1KBQKLBYLJ06cIDY2ltTUVEJDQ9FqtZSWlhIbG0tNTQ1eXl7odDpHmyzjYsgiJCNht9uxWq3U1taya9cuevTowbZt2wgICCAyMpKjR48SGRlJZWUlfn5+GAwGsrKyCA4O5ocffmDAgAEYDAbMZjO9evXCbrej0+lQKBSOHpqME6OQd8dkamtrsdvtHDlyhOzsbK699loOHz5Mz549UavVqNXqv53h2O12jEYjGo2G48ePU11dTWBgIOvXr+eWW25BoVDg6+uLVqt19FBlnBBZhK5QhBAYDAYUCgVr164lIiKC+Ph47HY7QUFBlzx7sVgslJWV4e7uzurVq+nevTtRUVG4ubnh5ubm6OHLOBGyCF2BWK1WampqWLZsGUOHDiU4OBh3d/dm8+fU1taiUCjYtGkTbm5uDBw4EJVKhVotewNkZBG64igvL2ft2rUMHz4crVaLv7//ZRMDk8mExWIhOTmZiooKRo8ejVIpb9Be6cgidIVgMBjYu3cvcXFxVFdXEx0djUajcYgter2eiooKKisrMRgMXHXVVbLz+gpGng+3cIQQ1NTUUFFRQXl5Ob6+voSFhTnUJm9vb7y9vRFCUFxcTFlZGTqdDm9vb0efLhkHIM+EWjhlZWWsXLmSW265hZCQEEebc1a2bt1Kfn4+t912m7w8uwKRRaiF0rDl7uPjg0ajITQ01GkvcLPZTE1NDVlZWQQFBREdHe1ok2QuI875q5S5ZOrq6khJSUGj0RAWFua0AgSg1WoJCAgA4MSJE9hsNkebJHMZkWdCLZCkpCRsNhu9e/d2uW3wuro6vv/+ewYNGkTr1q0dbY7MZcB5b48yF4XZbMZqtRIaGupyAgSg0+no2LEjFosFk8nkaHNkLgOyCLUgCgoKWLFiBYmJiS7rV1EqlXTv3h2z2czy5csxm82ONkmmmXG9W6XMWbFardjtdhISElpEjlabNm2w2Wzo9Xr8/PxQqVSONkmmmZBnQi0AIQTr168nLy+PhIQEp3ZCny9ubm506NCBn376iSNHjjjaHJlmRHZMtwDMZjNHjx4lPDxc2mVqCQghKCwsxGazERQUJCe+tlBkEXJx9Ho9a9asYcyYMfj6+pKfn8/GjRupra3lmmuuoVOnTlJKxIEDB8jIyABArVYzcODARgGMJpOJ9evXEx8fT2xs7CXZtX//frRaLZ07d5aes1gsJCUlkZycTHBwMNdee630+dXV1WzZsoVTp07RqVMnrrrqKimhdu/eveTm5kplQWRaFqq5c+fOdbQRMheP0WgEoG3btlRVVfH000+TlZVFeXk5y5cvZ9CgQfj5+WGxWHj55ZfZunUrZWVlnDhxgoSEBIKCgqRjff/99zz22GP06tWLTp06XZQ9FRUV/P777zz//PN4enrSp08f6W/r16/nueeew93dnS1btpCUlMS1116LQqFg/vz5rF69GpVKxeLFiwkICCA+Ph6FQoG3tzfu7u74+PjIvqEWiOyYdmEKCgrYu3cvN9xwAyqViu3bt1NaWsrChQvRarWsX7+eholubW0tlZWVPP7443Tu3Bl/f/9Gy5sjR46wZMkSfH19uZTJ8fHjx1mxYgW5ubmNnrfb7Wzfvp3Ro0cza9Ys9u/fz4MPPsipU6cIDQ0lKyuLuXPnctVVVzF9+nT27t3LuHHjgPpcM19fX1auXMm4cePkErItDFmEXBiLxUJAQIDkiE5PT6e0tJR58+ZRWVnJ4MGDpeWOXq/n6NGjvPXWW2i1Wjp16sT06dMJDg6mqqqKhQsXMnz4cCmx9GJJSEjg/fff5/HHH8dut0vPKxQK7r33Xvz8/DCbzWzfvh1vb298fHzw9vbmzTffxGg0Mn/+fLZu3cqMGTMaLb38/PyIi4trdEyZloHrb6NcoRQWFpKfn0///v2li1Wv12MwGLjjjjuYMmUKS5cuZefOnUB9asQdd9zBjBkzeOaZZ0hKSuLbb7/FbrfzxRdfSKJVV1dHRUWFtMy7UFQqFW5ubmcsmxQKBbGxsRQXF/PUU0/x008/8e9//5uwsDBUKpWUWmKz2dBoNBw5cgSr1Sq9383NjY4dO/Lrr79SV1fn6NMv04TIMyEXpaSkBL1e3+g5T09PunXrxsiRI7FarSxZsoT8/HygfqdpxIgRdOvWDYCePXty4sQJzGYzGRkZlJWV8corr7Bv3z7Kysro2rUrffv2bVKbd+3axQsvvMDVV1/Ns88+S3h4OACnTp3iu+++45577uHZZ5+lXbt2fP7559TW1uLj4yO9X6PRoFarG4mTjOsji5ALUlNTg5ubm+TUbaBv3778+OOPrFq1CpvNRklJCfHx8QDk5uYyc+ZMHn30Uby8vNizZw+PPvooOp2OuXPnUltbi9Fo5N///jcjRoygS5cul2SjzWZrtHSyWCx8+umnAMTGxrJr1y7c3Ny4+uqrUSqVfPfdd9TV1TFw4EA2bdpEbGzsGVvybm5uDBo0iIyMDLp27eqSaSkyZyLvjrkg6enppKSk0LVr10Yi1Lp1azw8PFi7di1ZWVlMnDiRwYMHo1QqCQwMRKlUsm7dOg4fPsx1113HuHHj0Gq1eHp64ufnh7+/P3q9nl69etGuXbuLtk8IQVlZGTExMbRv3x6oF6G0tDRMJhPHjh3j6NGjFBYW0rNnT1q3bk1YWBgbN25k586dBAcHM23aNIKDg884tslk4vfffycmJkZ2ULcQ5DghF8Nms0ldLM5VidBQW4vZYsXb2wv1X6Knq2tqsFis+Pn5ojpLzI2d5nEUCiHqHd4KBco/P9dut6NQKCQhNRqNmM1mPD09z7kVL4SgsrISs9lMaGjo5TvxMs2GPJ91MYqLi/npp5+YOHHiWf9erdfz2+oVnNrxOwqdO51vvIUB1w5Dq9GQfewYm5d/SfWxI7hHRDPo9nvoGB+PzW7nYPI+Dm7agM1mpdOAwfTqPwDNRS53DLW1HMvIoLZGT3i7KCIiIiSxKS4pISczA7VGQ/u4jvj51vt8hICqaj1VVZUEBAYSdI7Ib4VCQXV1NRs2bGDy5MkOq5Mt03TIMyEXo7q6moKCAuLi4s6IHjZbLHz99nyUn71MAkbMAnZ5tqLzSx/TuXdfvpw2ha57f6K1CkpssK/TQMYv/JITWZkkPf8Q3UqOoQRSfcJoP2sB14+7/YLz0EpKSlnx+lwUv63C3VRLaZsOXPX0PAYMHc6h/clseGUWAel7sCnVGHoP46bnXqFNm7b8/O1yji55H8+KQmrDoun14EyuHjb8rJ9vNpspKCigdevWsgi1AGSfkAtht9vZsWMHUVFReHp6nvH3EydPcuC1mQwzFuGhAU81hNTVsM+koFqhwWvZOyRqbWjUEKQBS9EpjvhEkLtxDdcc3U4bNwjQQISphu0nCoi77iY8PTzO2z4hBD8s+QzPz19hCNVEK0yEl+WzJT0D354D+e2t/9AvaR3d1SZiRB2KY6nst2ox6zw4MudBRhanEW+ppHVhDtv2JxPYf1ijiO4GVCoVmZmZ5OXlERER4eivReYSkeOEXAibzYbBYDjn3411dWjq9KgVIKh/uKvh1NEjrF31LZ5WE0JRv/QRgDd2KgoLUBSfwldd7w+yA+4q0JblnxEC8E+YrTbKDiQRp7AilGAD/DQQUpDJgb170B07SJgO7Ir6R5QWTvy+jpUfv0/Xmnw8NWBXQoAO2hccJWP/nnN+VkBAAB4XIJAyzossQi6EwWCgR48eBAYGnvXvrcLCMHXoSZEVVNQ/Msywcs9hvlq9hk16MNnqn7cJ2FmnxOrtjzIqnkLL/7+n3ALWyI4XnJGvUilR+wVgEPU/LMWfgmfQeHL8xEkySyqwA4o/H2Zg26E0Vny7CrP9/58HsCiVqDTnrosUGRmJEOKigyplnAd5OeZC7N+/n8zMzHMml7q7uWHxD+GLXzeTV17F7lpYVAJH6wR2ASVegaiDW1FktrG6xMz/SgQHj+UQ13cARTaBobSEApuK5DYJDHj6JWLjOlxQ1rpSoUB4+bJjxza8q8qw2yHFrmOdext+3LaL5OP5BKkgVAU1NvihTsPKUjvlVoFGAV08QKuAU2ZIatODkQ8/jZ+v71k/y2Kx8OuvvxIeHi73K3NxZMe0iyCEoLy8HJVKhZ+f3xl/Lyws5Ndff+WbZcv4448/MBoMNIQKtm3blhtuuIHb77iD1q1bU3Ayl3ff/5Dv1qwBIYiIiOCxxx6ja2x7EHY6dO9JVFTUGQJUUFDA+vXrqa2tZfDgwVKW++nY7Xb27d7Fvu9XYKmuJLmwnB+27KSsrBSAEQOu4oZuHdC6eRDU4yoOHs1kzZo1ZB9NI15lo60bZBrBEBrJ5Pvu46abbqJTp05nBCYKIaioqECr1eLl5eXor0fmUhAyLoHFYhErVqwQp/LyRGVVtcg5flwUFheLzKws8fbbb4t+/foJNze3BleQUKlUIj4+Xjz33HPiwIEDwmw2NzreyZMnxV133SWUSqUARFhYmPhi8WJhs9vP+vnV1dXivvvuE7fccouYOnWqGDFihMjMzDynvSaLVXy9fLloFxUl2XTDDTeI9KNHhdFsEWarVQghhN1uF9nZ2eL9998XAwddI3TuHtLrAdGuXTvx8MMPi99//10YDIZGn7Flyxbx888/O/qrkblE5JmQk1FUVERycjIKhYLExEQpC95ms5G0Zw/VZSUc/upjNLnpGDz9WFtoIOlIJnZ7fa8unU5HYmIit99+O6NGjSI6OvqcS6qioiJmz57NkiVLsFqtBAYG8p///If777//jDrVO3bsYMaMGXz++edEREQwceJERo4cydSpU884rs1mY8WKFcycOZNTp06hUCgYO3Ysb731FlFRUecce2lpKZs3b2bZn7O50tJS6W+BgYEMHjyY22+/g85dumCorqTOZCY0LIwOsbGYTCYOHz5MTU0NUB9P5O7uTufOnWUHtpMjBys6EUVFRTz11FOYzWYsFgteXl688847BAUFYTabqa6qYv87cxmWm0yABkwVUFMByXbQ+fhw9cCB3HnnnQwbNoxWrVr94+eFhoYyf/58tFotn332GWVlZTz77LOYTCYeeuihRrlbOTk5BAcHEx4ejoeHB1FRUeTm5iKEaCRyVquVL7/8ktmzZ1NYWIhSqeS2227jjTfeoE2bNn9rT1BQELfeeivXX389e/fuZeXKlaxbt46cnBzKyspYtWoVW375mbujA+hMLXoPf3xvnkz4I09iMZv58ssvycnJQalUkp+fj1qtZvny5bIIOTuOnorJ/D+bNm0SAwcOFLm5ueLo0aOib9++YteuXUIIIQoLi8S9d94uvmqvErldENldEMe7ILbEIu64uo/4/ocfRWVl5UV9bnl5uXjiiSeEVqsVgPD29havvPKKqK2tlV7z+eefi9tuu03U1dUJIYSYNWuW+Pe//y3spy3fTCaT+PDDD0VQUJC0JJw8ebLIz8+/KLssFos4fPiwePnll0ViYqJw0+nE5ABEaifE8c6IrE6ITzt6inXfLhc2m03o9XpRWVkpTp48KSZOnCjeeecdYbFYHP21yvwD8kzIiYiMjMTNzY13330Xk8mEr6+vNHvw8/PluhtuwLL/exA2aS/baoeR113PmFE3XvTn+vv7M3fuXLRaLe+99x56vZ6XX34Zs9nM9OnT8fLyIiQkhIqKCgwGAzqdjuLi4kYJtCaTiUWLFvHiiy9SWVmJWq1mypQpzJs376yJqOeDWq2mc+fOdO7cmXsmTeKz998jesWbeKnsWAGVCjqZDBzctxNxy22Sg3rNmjVYLBbuueceOdPeBZDjhJyI2tpaLBYLJSUllJeXY7FYpIDBnJwcCsoqye98NTlGsFihzATJgZF0vnbkJX+2r68vzz//PDNmzMDDwwODwcD8+fN5+eWXqa6upnv37tjtdhYtWsTnn39OVlYWV199NVDfuvmdd97hhRdeoLKyEq1Wy0MPPcSrr7560QL0VyLCwxl5w41Y3D0Rol6DlUCdAI2XrxRfVFxczKpVq7jrrrvw9/d3wLcoc6HIcUJOxNdff01JSQmLFy9m1KhR/Pjjj6hUKnr37o0QgpCQEDoOGcmOajNpdi3HO/Sh1xMv0GfgoCbpNabVaunbty8ajYY9e/ZgMBik/w4dOpTY2Fg2btxIZmYm99xzD9deey21tbUsWLCAV199Vapz9NhjjzF37twmFwEPHx92pWdhyUrFU0CRGZIiOjP48dm0ahUGwNq1azl8+DBPPvmk3CLIRZDnqk5EUFAQJSUlHDx4ECEENTU1koPZbrcjhKBTl65EvfEh+j8veG/PpnW6enh4MH36dHQ6HfPmzaOqqor333+furo65s2bx2effYbdbsfd3R29Xs+rr77KO++8Q11dHe7u7jz55JPMmjWrWQIIA/z9Gf/C6/waG0/OkQMI30BM/q1oE9kOqHeKb9q0if79+zeqyCjj5DjaKSXz/5SWlopnnnlGjBo1SowaNUrMnTtXVFVVCSGEyMzMFOvWrbtstphMJvH++++LgICARk7mEydPCUOdURSXlIqnnnpK6HQ6AQhPT0/x4osvipqamma3zWYXoqbOKPQGg1ixcqUoKysTQtTHMj311FNi27Ztl+08yVw6cpyQk2GxWCguLkahUBASEiI5Vuvq6qipqSEoKOiyNQC0WCwsXryY2bNnU1JSgkal4u4h/Uhs04ojZXo+W/87JrMZHx8fZs+ezeOPP467u/tlO1dWq5W8vDyppIfdbsdkMqHVauX+ZC6ELEIuQlZWFjt37mTChAmXtde81Wrl62++4ZlZs+hlyOeJIAhWQ74F3iyBZG0Ac+a8wNSpUy97udXKykqWLl3KpEmT5NQNF0YWIRehpqaGiooKqUrh5cRms/H2i88TtfRVenvUl+hQAdsMcPyOmTw996UzIqwvBxaLhYKCAsLDw+WZjwsjb9G7CEqlkoMHDzqkdIVKpSI8JBhf1Z8JXX/WI/JTQVx0lEMECOqTdo8ePSr3p3dxZBFyEZRKJVarFZvN5pDPj+rekyMeIZj+rFVUZ4EM33CiuyU69LxotVpZhFwceTnmIgghKCgowMvLyyHbzyazmbVL/sfJxe/hV1VMeUAYsfc/zQ13TLjogviXSkFBAVqt9pxF3mRcA1mEXIjVq1cTERFBnz59HPL5NrudE7m5lBYXE9yqFW3btLmsTvK/8u233xIdHU1iomNnYzKXhixCLkR5eTkKhQI/P78rfgkihKCkpARvb+/LGhYg0/TIPiEXwmq1snHjRiwWi6NNcTglJSVs3LhR3hVrAcgi5EJ4eHjQqlWrK34WBKDRaIiNjZVFqAUgi5AL4eXlRXh4OHl5eY42xaEIITh+/Djt2rWTRagFIIuQi1FcXExWVpajzXAodrudzMxMTCaTo02RaQJkx7SL0ZBbFhQUdF5pEnq9noMHD9K7d2+0Wi12u53Dhw9z+PBhIiIi6Nu3r3QcARhNZlQqFVr1pc0w6sxmlAoFumZo01xdXU1tbS2hoaHy0rQFIJfycDHUajW///47CQkJJCQknPN1NpuNnJwcli1bxpYtW1i5ciVarZYdO3bw7LPPEh0dTXZ2NhMmTOBf//oXxSUlbPx6MWUHdqPyC6TnLXfR9+pBKC/wIq+urmbDt8s4te03FDod8TfcyqCR16PVaEhPT2f79u24u7szdOjQ86qDfTa2bt2Kp6fnRb9fxrmQZ0IuSFFREUql8m8z6huqHX733XdoNBp++uknvLy8mDZtGu7u7sybN4/Vq1ezePFi/vvpZ6x9ax5hP/yXWKWNGjtsD2iHbfQUPP3OvzCZAEpT9xP7+9d0FUasAna5BdH+xUW07diZJ594gujoaCoqKvDy8mLBggX4nqO54bmw2WwUFhbi4+MjNz1sIcgzIRckMDCQ1atXM2DAAMLDw8/6Gjc3N6ZNm0bXrl1ZuHAhUF8+9vjx49x7773odDq6deuG0Whk947t6LZ8T6LWhlCCDzCg8jj3vzKHNOOFzYSmBAgmtapvAa0ABppK2brma/Z17ENISAjvvPMOhYWF3HPPPaSkpDBo0KALOv7+/fspLy9nxIgRjv4aZJoIWYRcEJVKRXR09N/uDCkUCjw8PPD09JRmSzabDbvdLrXA0Wg0KJVKqiorcLcYUSjATv2MxkMFbqJ+J+pC8FWC6rTjuCmBmipM5nonst1ux2w2U1lZSUFBwQWP3c/Pj4CAAEd/BTJNiCxCLohCoaBHjx5s3rwZlUr1t8XkTxcRNzc3vLy8KC4uBqCqqgq1Wk1CYk82R3SkLHMngVqwCThs0zHk7ru4JbL9edtls9up2f4Lp7K3E64FBKRbFHgkDuC2m8Yxe9YsHn74YfR6PUVFRRfcCePIkSPo9Xr69u3r6K9ApgmRRchFUSgUWCwWqqur/1GEbDYbQgh0Oh29evXi22+/JSYmhhUrVtC+fXu6JSRgnjGP3xbMxe9EKnVu3rjfOIHnps3E7wJ9NodSRvPL/OfxPrIbq0qDfdiN3DJ5Kmq1mqeeeoqamhrMZjNlZWWEhYVd0LFramoue+E0meZHdky7MHa7ndTUVEJCQggNDT3raw4ePMjq1auZMWMGnp6e5Ofn89prr3Hs2DFCQ0N5+umniY+PB6CwqIi8Eyfw9PYmKjoa3UXWCSqrqOBETjYajZZ27dvj5eHBunXr+PTTT5k1axbbtm0jKSmJjz766Lw6cgghSE9PR6vV0r79+c/MZFwDWYRcGCEEv/32G56envTr1++sr7Hb7dhsNtRqteQbavDJXM7kz4qKCt5//33S0tLw8vJi6tSp9OzZ87zfv3btWmJiYiTBlGk5yCLk4litVgoLC7FarURGRjp18J7dbqe6uho3N7fz7glms9lIT08nLCwMf39/px6fzMUhp224OGq1Gr1ez5YtWy54J+tyo1Qq8fPzu6CmhLW1tSQlJQHIAtRCkWdCLYCGGUZhYSFRUVEtxnnbsI3frl07uWZQC0aeCbUAlEol7u7uJCUlUVRU5GhzmoyjR4+SnZ0tt3Nu4cgzoRaE0WgkLy8Pm81GbGysyy5fbDYbycnJhIeHN2oAKdMykWdCLQg3NzesVisHDhzAbrc72pyLxmAwkJGRgU6nkwXoCkCeCbUwhBCYTCZ27NhBbGwsbdq0cbRJF8SePXtQKpV0795dLlh2hXDJMyGTyUR5efkZBab0ej0Gg8HR47viUCgU6HQ6PD09qaysxGg0Ov2uGdQ71xuiqQMDA2UBuoK4pJnQwYMHee+99ygrKyM4OJhHHnmELl26sHz5ctasWYNKpWL8+PGMGTNG/lE5AIPBwDfffMPIkSOdfka0Z88ejh07xvjx4x3aRkjm8nPRImQymXjwwQfRarVMmjSJJUuWYDKZmDp1Kk899RRTp07FZDLx1Vdf8emnnxIXF+fosV5x2O12cnNz0Wg0VFZWEhcX57CWzeeiurqa7OxsgoKC0Gg0hISEuKxDvSWj1+tRqVRSBQar1UpxcbGUQH0pN46LfqfFYiEqKorHH3+c/v37079/f4qKivjtt99o164dEyZMYMKECXh7e5OSkuLoc3hFolQqiYqKwtfXl3379lFUVOSQXvZnw263U1tbS05ODtnZ2YSFhcnlWp0Qu91OWVkZc+fO5Y8//gDqBenVV1/lgQce4L777uPTTz+9pDZUFy1Cnp6ePPPMM7Rv355169bx+eefM3LkSGpqaggODkalUqHT6QgICKC8vNzR5/KKxtvbmwkTJqDT6fjyyy8pLCx0tEmkpqaycuVKYmNjuemmm+TlupOSlJTEAw88wOLFi6murgZg8+bN/Pbbbzz77LM8/PDDLF26lCNHjlz0Z1y0CCkUCkpKSnj22WdZuHAhkydP5l//+hdubm7S9rAQAqvVKgebOQFqtZrAwECpIuGaNWscEtiYnp7OunXrCA0N5frrr8fd3V32ATkxkZGRPPjggyQkJEgbHDk5OcTExNCvXz+uueYaNBoNqampF/0ZFx2EYTabef311ykvL+e9994jOjoahUJBXFwcu3btoqysDIPBQElJCdHR0Rd0bLvdftYf5rmedyUsFgsmk6lRxcOqqioMBgN+fn7Smrs5UKlUREZGYrFYCAkJoa6ujq1btxIZGUnbtm2bddwpKSmYzWa8vb2JjIwkODi42ZdetbW1KBSKRikfNTU1aLVap/ONXSxWq1VqDx4QENBoRmkwGFCpVJc0CQgLCyMwMJD//ve/kgh16tSJlStXsmLFCkpKSkhNTb2kZf5Fi1BRURHbt2/Hz8+Pl19+GZvNRseOHbnrrrtYtmwZjz76KGazmfbt29O9e/fzOmZ5eTnLli0jPT2dVq1aceeddxIVFUVKSgorVqzAYDDQu3dvbr755ma9WJsDIQQWi4Vvv/2W3NxcZsyYgUqlYtOmTXz44YeYzWb8/f15+umn/7aLRlOg0Wjo378/drudU6dOUVVVRUpKCkajkV69egFc8vLIZrNhtVrZvHkzUVFRGAwGfH196dix42U51waDgQULFtC1a1duueUW7HY7paWlvPzyy0ycOJHevXs3ux3NTU1NDe+++y7bt29HpVIxYMAAHn30USk84/XXX2fo0KEMGzbskj6noSheA/3792fy5Mls3LgRNzc3qcLBxXLRIhQQEMCCBQuora1FCIEQgoCAANq2bcs777zD77//jk6nY9iwYefVFcFut/Ppp5+yfv167rjjDjZt2kRmZiYvvPACs2fPpl27dsTHx7Nw4UKUSiV33HGHSzkxy8rKeOONN1ixYgWDBw9GoVCg1+t599136dWrFzfffDNvv/02ixYtYuHChZclUlipVDJw4EAAsrKyqK2t5eTJk/zxxx+MHj1aEg5vb2+EEGcVJiEEdrsdhUJBaWkpVqsVk8nEtm3bGDlyJDqdDl9fX2JjYy/buT506BDz589nw4YNvPzyywBs2rSJd999l507dzJ27NjLZktzsn37dn788UfmzZuH3W5n9uzZ9O7dG29vb15//XX++OMPEhMTm+SzGq5xqJ/VlpaW8vrrr3Ps2DEyMjIu6eZy0b90T0/Pc3ZKiIqKIioq6oKO19DU7/HHH+emm26iffv2PP/882RkZNCqVSuef/55WrVqRVpaGvv27eOOO+5okpN7uXB3d+eGG26gqqoKq9UK1N9hrrnmGm6//XYiIiLo0KEDycnJUhGyy0lMTAwxMTEYjUb69euHRqNh165dtGvXDp1OR3p6OsOHD2fHjh10796d8vJySkpK6NatG2vXrmXYsGGkpqai1WpJTExkwIABBAYGcs0111z2cx0SEsJdd90l1dIGiI6O5p577qG4uNglgjfPBzc3N+6//36GDh1KaWkpnp6eVFRU0LFjRyZOnNhkGxAKhQIfHx9pWefv788ff/xBRkYGxcXFDBs2jJiYmIv/AOEk2Gw2UVJSIoxGo8jJyRH33nuvuPfee0V5ebkoLS0VJpNJbNiwQfTv318sW7ZM2O12R5t8USxcuFDcd999wmKxCLvdLmw2m6ioqBCffPKJ6N+/v1i+fLnTjM1qtQqr1SoqKytFTk6OMBgMYt++faKkpEQcP35cHDp0SNTW1ors7GxRW1srLBaLsNlsjjZbCCGE3W4XkyZNEh999JH0XFVVlbjuuuvEr7/+6mjzmgSbzSZsNptITU0VDzzwgBg7dqw4ceKEEEIIo9Eobr75ZrF8+fILP3dn+Zzs7GxRXl5e/3e7XWRnZ4u1a9eKrVu3itra2ksaR5Pebu1CUFhYRHFhASGtwggLa8X5LpiUSiU+Pj589913fPHFF7Rv357p06fj7+9PQUEBL774Irt372bSpEmMGTPGpZZijc7RaYmlCoWCtLQ0XnvtNerq6njhhRe49tprnWZsDcsvX19fqUlhw/Q+KChIet2FznovB3/1Y5zrOVfGZrOxbNkylixZQu/evZk9e7YUGX+hYxVCkJmRQdKGdRirq4ju2Zd+g6/F3c1NijdrQKFQXNRq51w0mQiZLRZ+Wv41x5YsxK34JLVhUXR7cCbXjhqL+jycnEIIli5dyjfffMO0adMYMWIEGo2GiooKZs+ejU6n48MPP2wxkdcNPqGXXnqJ0NBQnnrqKYKDg7FarahUKqcRIldGnObH+OvzLYFt27axaNEinn76aYYOHYpGo8FqtUpL+XON/2wcPpjC+pkP0Dl7D55A+jd+FE59jnEPPo5Wo2nWcTSZCB3Yk0TuW7O4obYQdzXUZBfzy6tPE9Yumq7duv/j+/V6PV9//TVarZZDhw5x4MABQkNDCQkJYfPmzYwdO5bVq1djs9m46qqrnGrGcCFotVrc3NxQKBTk5+eTmppKUVERjz/+OHa7nb59+zJjxowWs4XsSNzd3Rudx4aGkC2lPEhSUhLFxcUsXryYxYsXo1KpePLJJ7n66qsB8PDwQHMeAmK12di+bDG9j+0h2r2+cWW4rZK1X3/I8ZGjm/3G3yTfhgCy9u6ki74QDzewAd5aiC07Tsb+veclQiqVigkTJlBUVIQQAqVSiUKhoHXr1jzyyCNSWHjD867K2LFjGTZsmDS2Tz/9tFGme1BQkBw93ASoVCqefvrpRjuzXl5ezJs3j9atWzvavCZh/PjxDBgwAJvNBtRfGx06dABAp9MxZ86cRsvmc2G2WLEWnSJIXX/tCgEaJfgbKqgoK2v2cTTZLUHj5o5RoUCBQEF9H3K9RbBn+06uHz8BD4+/rxHs6enJ5MmTz/q3htiVlsDpDf+8vb3p06ePo01qkSgUikZhAXbqo8ZbUsugv/PLqFSq8942VymV5KMj2ww9NCAUUGuD8tC2hIVHNPs4mkSEFEDXQdey7Is4AkqPEqiBXDMsrYBty1eS0G8AkydPdvlo56akpLSULT9+T+mxo/i3jWLgjWNbzB3amSgrL2fLuu8pyUzDJzySgaNuIiI83NFmORV//L6JL9Zv4o8qmBQEfir4oxo0/brTKqxVs39+082EtDpWVylZdQISWvnh0zGBzXlJ1Nbpefnll+nYsSP9+/c/7+PVmc0Iu8DdTXfeO2yuQnlFJV+/MIPQDUvpioUCVHy9ZQPjXnr7b1s6y1wY+poalr/8HMHrl9AFM0VCxfKtG7jz9UWy4P9JdnY2c+fOpaCggEKlkoC4wRxNPUxWWTHxu/Zw6uTJC067ulCaxickBD+sXcuRoxnYbNBt0Bhmv/oKhmee4csvvyQ7O5s5c+bwxRdfEBHx99M7o8nE7+vWkvnzdwiLiYhBIxl+2534nEfUtatwYNd2/DatoJ/OglBABDZsu35gyvhchKdvi9m9cSQKhQK7sZaJpQcYoDNL51kkrWPH+h+5dcoDLermJoATubkcPZiCSq2mc2JPWp2jNXgDNTU1vPbaa+zevRuAgQMG8MZ7H/DSvJfI+vprMjIy+OWXX3jwwQeb1w/bFEFTBQUFom/fvgIQvr6+4pdffhFCCHH06FHRu3dvAQilUikee+wxYTAYzh18ZbeLH5YtFR908RfJcYiDcYgv4tzEF2++Ikxmc1OY6hR8+9nH4uc4pTjeBXGsM+J4F8SmWESoAvHn70l+NMHDE8SaaETun+c5pwvi9xjEp/Oed/RPoEmx2+1i19bN4vWRvcXSOJ1Y0sFdvHHbCJGWmnrO99hsNvHRRx8JDw8PAYjWrVtLQZyrVq2Snh86dKgUpNhcNMlM6JdffuHAgQMAXHPNNVJf9Li4OF588UWmTJlCYWEhn3/+OQkJCUyZMuWs/iG9wUDG6i8Zbq7AW1v/SxpgM/LDD0spvP1u2kY0v5OsuamurmbrvgME1Qg6BoBaUT/ODLsG/7atcJMboDQZagTpFJMgjKj/vJGnGiEjNx+DwYCnp6ejTWwSKqur2frBfAYf20OoGyAgO3kDGz95h3bz38dNd2a4x+7du5k/fz61tbW4ubkxffp0Bg8eDMDVV19Njx492L59O0lJSezYsYMbb7yx2ey/ZBGqrKzk66+/xmQy4e7uzl133dVoW3T48OFMnz6d5557jpqaGl5++WU6derEgAEDzjiW1WLFXlOFVll/YQKoFKA2GrCYzc12Ei4XlZWVvPTSS3z0v88JsAjqbNDVA7JMChgzkTVPzkInxwc1GTabnR8//5j/fbGAzlobx4zweRkUfL2MgPA2zJgxw+WqMZyN8rJy3HKPEqQFK6BQQJgGDmQcpMZQg5suoNHrCwoKmDt3Ljk5OQDceuut3HfffVJoSFBQELfeeis7d+5Er9ezatUqhg0b1nydfS91KvX9998LLy8vAYirr75aFBcXn/GayspKcffdd0vT5CFDhkg5LqdjsljEJy/MEj/G1C9Vcrsg/miPeOu+O0SVXt+sU8LmpqSkRDzyyCNCq9UKQHj7+Ige3RKEj1ohNEqFeOuddxxtYotkyZdfCZ1GLbxViNjodsLN3V0AwsPDQ8ybN++S856cgYKiIvHGyD7iSIf6JefxLoh9sYgFE8cK/V/cH0ajUcycOVOoVCoBiB49eoi0tLQzjpmWlibat28vABERESH279/fbPZfkggZDAYxfvx4AQiNRiM++OCDcyZfZmRkNPIPPfroo2f1D504cUI8dv014t+hiLmtFeI/t44UqYcONdsJuBwUFhaKKVOmCLVaLfnNFixYIJYuXSp0bm4CEA899JCwWq2ONrVFYbfbxfPPP1//m1OpxDvvvCueffZZodPpBCC8vLzEq6++Kurq6hxt6iVhtdrE6sWfife6BIrtcYjNsYg3erUVm35e1+h6tNvtYvny5cLPz08AIjAwUHz33XdnPabFYhGPPPKIAIRCoRAvvvhisyUnX5IIbd68WQQFBQlAdOvWTeTm5v7t63/++WfRqlWreqehp6f46KOPzhiYzWYT90yaXP8j8fQUP6//pVkGfrnIy8sTEydOlO48AQEBYuHChcJkMomUlBTpfFx77bWiurra0ea2KIxGo7jlllsEIPz8/MTWrVuFXq8XM2bMkITI29tbvP7668JoNDra3Esbq8kk5syaKdprEVE6xGvzXhJWa+Nr6+DBg6JLly4CEGq1WsyZM0eYTKZzHnPTpk0iICBAACIxMVHk5eU1i+0XLUJms1k8+OCD0szmpZde+keltFgs4s033xRuf979IyMjxZYtWxq9xmAwiFGjRglAhISEiOTk5GYZ+OUgNzdXjB8/XiiVSgGI4OBg8cknnwjznzt9hYWFonv37gIQHTp0EMePH3e0yS2KwsJC0aNHDwGI2NhY6fxWVVWJp556Sloa+/j4iLfeeutvL0hX4IMPPxSgEIB4++23G/2tvLxcWrUAYvTo0Wd1nZxOdXW1dC3qdDqxZMmSZrH7okUoOTlZtGnTRgAiOjpapP7NduDpVFZWinvuuUc6Gddcc02jGVR5ebno16+fAET79u1FVlZWswy8ucnOzhZjx44VCkX9j6JVq1Zi8eLFwmKxSK+pra0Vo0ePlmZIO3fudLTZLYq/m2lWVFSIadOmCY1GIy2R3333XZcWos8++0y64b3yyivS8xaLRbz22muS6MbFxYm9e/ee1zEXL14svW/06NFC3wy+2YsSIavVKmbPni1dYE8++WSji+ufyMjIEH369JFmUQ899JCoqakRQghx6tQp0bFjR8lp9k9q7YxkZGSI66+/XhLaiIgI8c0335zh87Hb7WL69OmST+2rr75ytOktiu+++06adU+dOvWM819RUSEeffRRSYj8/f3FBx98IM1UXY2lS5dKy/45c+ZIz69fv14SY29vb7F48eLzLpx36tQpaTbp7+8vfv/99ya3+6KCUnJycli9ejVCCFq1asX48eMvqDxCbGwsL774ImFhYdjtdpYsWcKXX36J3W6nsrKSmpoaoL6O9emdElyBI0eO8NBDD/Hzzz8D0K5dO9577z3Gjx9/Rna8QqGgY8eOKJVKLBYLmZmZcrR0EyGEICMjA6PRiEKhID4+/ozz7+fnx4svvsj999+PWq2moqKC559/ns8//1wqwetKuP1ZgAyQul80pGUUFhaiVCqZMmUKt91223lHQIeFhTF27FgUCgUVFRWsWrWq6c/NhaqW3W4Xb775pqS4kyZNuqjdhb/6h9q2bSu2bt0qtm/fLnnv77zzTpeaHh84cEAMGjRImgHFxsaKdevW/e1d59dffxXe3t4CEHfddZfL3oWdDavVKqZMmSJtx//000/nfG1paal44IEHpN3LoKAg8b///e+CZvfOwLp16ySH+7Rp00RNTY144IEHpBXL4MGDxcmTJy/4uMnJySI8PFxykaSnpzep3RcsQvn5+dJW++kpGhdDZWWlmDRpknSShgwZIt565x2h1blJJ9JZ6i3/E0lJSVLqCiA6d+4sNm7c+I/2p6eni8jISAGI/v37i7KyMkcPpUVQUVEhrrnmGmk5fPjw4b99fUlJibjvvvukm2tISIhYvHixS4VN/Prrr8LT01MA4l//+pdYtGiR9P9t2rQRf/zxx0Ud12g0ikmTJtVv1ytV4vU33xRNeVVesAh99tlnjRxVl7qtnJmZKV28/lqVuD42QnT0UAqNAjFv3rwmHGrzsW3bNmndDIju3buLrVu3ntd7y8rKRP/+/aXZYFPfZa5UMjMzRVRUlABE3759RUlJyT++p6ioSEyePFkSolatWomvvvrKZYRo69at0iqiW7du0s3N3d1dvPfee5c0jh9//FH4+fiINhrEuIQYsfSDd0RRE/lrL0iESsvKxOChQ+sH5uEhli1b1iRG/Lx+vegeHizej0Ds7YDY0QHxSAhi4VtvOv1M6Pfff5diLwDRp08fsXv37vN+v9lsFhMnTpSC5zZs2ODoIbUITl/m3nnnnee9zC0sLBQTJ06UdpnCwsLEsmXLnKaLyN+xZ88eERgc/OdvUSEFGt57772XvKu1b+8e8Wh8mPg1BrGvA+LbGLV477H7RGVV1SXbfd7e5KLiYpa/+yZBqdsZ4gXWmPb0+7OLZ8ND/NkI76//Pv3/bTab1J3TarVis9lQKpXcHubOdbWgUtYXSZvsB7syD2K22tBpmrYmcGFhISqV6ozaPfn5+RiNxvOqnyKEYOPGjUybNo309HQABgwYwMKFC+nRo8d526JWq6UavgaDgWPHjjF8+PAmHe+VSFZWFgaDAYCOHTue98ZJaGgo8+fPx2q1smLFCgoKCpg+fToqlYpbbrnFaQvz2ex2TmRl0kNtxMsPMoyCNCN0696dJ554AiEEFRUVWK1WzGYzRqMRk8mE0WiUHrW1tRgMBulRU1ODwWCgtraOktT93GMtJNatvkploNrKr5tWcnj/RAZcM/iSbD+vb6bOaOS7d14jfOV7vBxgw+oP28y5vDRzOnYPb8xmM1arFYvF8o//bRCh0x8mo5GH1cVo/P5MwAO8lJCXdoi09DS6denSJPVMzGYzp06d4qWXXmLIkCHcc8890t/Kysp47LHHiImJYf78+X97HCEE69at48knnyQrKwuAIUOG8N5779GlS5cLskmhUBATE4NGo2m0Q+bKdbQdjfhzZ8xut6PRaIiLi7ug89m6dWvefPNN7HY7K1euJC8vj6eeegqVSsXYsWPPS4gyMjIICQnBz88PqE8azczMxN3dnfj4+CbP4D98YD/ZC+cw30ePTwDkW+ClQjhhMPD8889jMBioq6ujrq4Oo9GI2Ww+42G1Ws+YODQQo4bH2tcLkF3UJ5b7WU3oK5qgBvX5TJeOZmSId/tGiux4RHaX+iS51E6Iq92brvbLSC/E/g6I453rH2ujEVHuKhHXoaOYPXu2SE5OvuSdsr1794qxY8eKgIAA8fHHH0vPm81mMX/+fNGmTRsxbdq0vz2GzWYTq1atktbbgBg5cuQl+XJ27twphcePGTOmRSRVOpLTo+4DAwMvaHl8OidPnhS33nqrtHESGRkpvv/++791EVRXV4stW7aIYcOGie3btwsh6pNBx44dK8aNGyeGDh0qZs+e3aT5aiWlZWL+U4+KjTH1yavZXRAnuiA+i0RoL/J6VCgUQqVSCa1WKzw8PESEv4/4pJ1C5MTXX59pHRAL+sWItCNHLtn+85oJmc1mhMmI4jQrVQrwdlfhqXJHrVKhOsdDrVaf8ZxGo0Gj0aDVaqV/e2pUrK3IoV1JDialhuV1NnLqquFoOq+88gpLlizhhhtu4M4776R3794XdSfp0KEDr7/+OrNnz27UhHDDhg0cPnyY22+//W9jIGw2GytWrGDmzJmcOnUKhULBqFGjePvtt2nfvv1F3what25NaGgo5eXl5OTkUFFR4XLxUc5EeXk52dnZQH2cS/hF1pSOiIjgrbfewmazsWbNGnJzc3niiSdQqVTccMMNZ51d/fLLL3zwwQekp6dLv7FffvmF4OBgFixYQFJSEs8//zwPPvig1KjwYikoKGD9+vV8tXQphft20C/k//8mAK0CfL09ETp3dDodOp0OrVaLTqfDw8MDLy8vPD098fT0lP7t5eWFl5cX3t7e0r/r2yRpSPv1R3765Ru8a6soCW5D7MPPEdME7YDOS4Rat26NsesAcnaspp2ufjq236ph2ENP8u+Ro9D8KTTq8/yvQqFAqVRK7Xsa/ltSWsqp7Cy0bu5E6muIWbWKn376iZMnT3Lq1Ck++eQTVq1axZAhQ7jzzjsZPHgwAQEB5zMEoL7lS2xsLD4+PtJUMzMzk//973888sgjHD58mKysLMlPdfqPzGq18uWXXzJ79mwp8GvcuHG88cYbtG3b9pK+hMDAQNq0aUNaWhpFRUUUFRXJNZAvgYKCAqkPfWRk5AX9Rv5K27Ztefvtt7HZbPzwww/k5OQwbdo0VCoVI0eOPEOIhg8fTlxcHI8++qgkQmPGjGHMmDEcOXKEn376iYiICHx8fC7KHiEEx48fZ+3atXzzzTfs378fs9mMGvhVB3f5g1YJpRY4GdmFz957hbCwMNzc3KSHTqdDrVY3eqhUqn9cZvYf0J+jt02kuryMq9pGEt2+Paqm8JGd75QpPS1NvPPABPFe33birYEdxX//82yzl300m81i37594plnnhEdO3aUdiz4Mwt/6NCh4r///e8FBWBZrVYxefJk8eGHHwohhPjggw9EfHy8ePTRR8WgQYNEQkKCWLlyZaMpt8lkEosWLZIqBqhUKnH33Xc3WVax1WqVkoF1Op1Ys2ZNs57Xls7y5culVIxp06Y1yc5Wdna2uPHGGxsFop5rJ7O0tFQMHTpUbN68WXrOYrGIt956S1x11VVizJgxoqCg4II+32q1iiNHjoiXXnpJdO3aVQojAISbm5sYNGiQ+M/TT4oFI3uLhb3bitdvGSa2bvrVsV/EeXJBW/TVNTUiMzNT5Bw/fllrPttsNpGRkSHefPNN0adPHylOiT9zrnr27Clee+01kZ6e/o8/OKvVKiZNmiQ++OADIYQQWVlZ4ueffxbr1q0TU6dOFaNGjRKHDx+WRMhoNIp3331X+Pv7SyUQ7r//flFUVNSkY3zrrbck38P8+fMv27ltibzwwgtSXuJHH33UZMfNysoS1113nfTb69Chg1SX+XRKSkokEbLb7eL3338XaWlpwmaziaysLNGvXz+xbt268/pMs9ks9u7dK2bMmCFiYmIa+W28vb3F9ddfL7766itRVFQkrDabyMsvEEePHhUllyHo1Wq1iqqqKmGz2YTNZhM1NTWiqqpKeuj1+vOKTWqSQveXk/z8fPG///1PjBgxQqroyJ+OtNjYWDFjxgyRlJR0zvowVqtVPPPMM+Kbb745429ff/21ePXVV6X/r62tFa+//rrw8fERgNBqteLRRx8VpaWlTT6un376Sbj/WfVvypQpLhMg52yYTCZxxx13SBdpUydcZmRkiOHDh0u/u06dOp3xGcXFxWLw4MHijz/+EHa7Xfz73/8WU6ZMEbm5ueLXX38V/fr1+8eKCbW1tWLz5s1i6tSpUspEwyMwMFDcfvvtYu3ataKysvKyn2O73S6sVqvYsmWLmD59uqiurhaVlZVi5syZ4pZbbhG33nqrGDNmjJgwYcI/1hgT4m9EKCMjQ6SkpEj/X1paKtasWSOWLFkiUlNTmyx4y2q1nnEss9n8j7sH5eXlYs2aNWL8+PHSMqnh0bp1a3HvvfeKjRs3nhHRbbfbRUVFhZS1fzoNSt7w75deekkSOp1OJ6ZPny4qKiqaZNx/5dChQ6J169ZS+kpVEwSBXYmUlpZKEfhRUVEiMzOzyT8jPT1dDP0zaBcQXbp0aVQXq6KiQjz00ENSLazDhw+L22+/XYwdO1Zcf/31YsGCBef8fVdVVYmffvpJ3HXXXSJYCjz8/9/1/fffLzZt2vS3XWuam9raWvHOO++I7t27i4EDB4qKigphMpnE7t27xcaNG8XGjRvFhAkTxIQJE85LJM8QIYPBILZv3y7Gjh0rlQMwGAziscceEzfddJO4//77xeDBg5uk5mzDUmffvn1CiHqB2Lx5s3jggQfExIkTxRdffPGP2/IGg0Fs3rxZPPTQQ1J9o4aHv7+/GDt2rFi2bNl5he03UF1dLZ577jmp7Ym7u7t45plnmrXyYVFRkUhMTJT8DdnZ2c32WS2Zw4cPi4iICAGIQYMGNdtN48iRI2Lw4MHSby0hIUHs2LFDCFHvPqiurm4UpV1ZWSmOHj0qTp48edZZbmlpqVi+fLkYPXq08PX1bfQ7jo6OFk899ZRISkr6x+uhurpanDx5UnInVFVViaysLJGZmSkyMzOb5OZmNpvF7t27xbx588Tw4cPP8A3v3btXjBo1Shw8ePC8jneGCGVkZIh7771XREZGimeffVYIUe+U69+/v9i+fbuoqakR1113nfj8888vaSB79+4VDz30kAgPD5cynHNycsSwYcOk+svDhg1rNBv7pxOzf/9+8eyzz4pOnTo1cmK7u7uLa665RixatOgfp4cN08qG7H4vLy/x4osvnnXm1JTU1dWJW2+9tVEpUpkLZ926ddKy9v7772/WZe3hw4cbVU1ITEy84JikvLw88emnn4ohQ4ZIN72GzY/OnTuLuXPnisOHD//jOKxWqygpKRGvvfaaeOqpp6TVxaeffioGDRokxo4dK26++eYmTQv67bffxPXXX99IhIxGo5g6dap47bXXznu1dMYWfVRUFAsXLuT555+XthiDg4OJi4tjwYIFhIeHU15eTrdu3S5pV06pVBIVFdUodWLXrl14eHjQt29fbDYbzzzzzD92bG1Ao9HQvXt3EhISmDx5Mj/88APLly/nwIED1NXVsXnzZrZv385HH33EuHHjuOWWW4iLi6O6pob8U6dwc3fHw8OD1159lY8//hiz2Yyvry/PPvssjz76aLPH7eh0OmJjYwHQ6/VkZ2czcODAZv3MlkhDDSGo73v31xpCTUnnzp15//33efjhh9m2bRvJyck8+uijLFq0iJ49e57zfUIIcnJypG32AwcOYP6zpZVWq6VHjx7ccccdjBkzhqioqPOK9i4uLmbevHn88MMPDBkyBAC73U56ejq33norY8aMQaVS4e/v32Tjt9lsZzy3f/9+MjMzmTFjxnmnuJwhQg1xAxqNRnquurqaiooKPD09cXNzAyAvL4/u3btfdHpBjx49iI2NZdu2bZLYHT9+nEOHDvHee+9RV1eHj48Pr7/++gUdV6lUEhMTw5NPPskdd9zBhg0b+Oabb9i+fTs1NTWkpKRw8OBBPv/8c64bMZyoihN4ZOzH4u5Fki6Eldv2YLFY8Pf358UXX+SBBx5ovn5Lp6FQKIiNjUWlUmGz2cjIyJDTNy4Qm83G0aNHEULg5uYm5eQ1J127duX999/noYceYufOnezZs4dHHnmEjz76iO7du5/VvpUrV/Ltt9+SlpYmXcgeHh5cddVVTJgwgeuvv56wsLALsiMgIIDp06fj7+9Pfn4+8P9pSnl5eeTm5hIfH8/48eObdPzitNQOIQTr16+nU6dOtGvX7ryPcV7BigcPHqSoqIjvvvuOVq1aMWvWLH7++edL7spos9kaDaKuro7WrVvzxhtvoFAomDJlClu2bOGOO+64qOOHhYUxadIkxo4dy9atW1m6dCmbNm2ipKSE7Oxs0r/8mHvCIVQDdhN46bNYbwNFUBAvz5vHlClTGolxcxMdHY2npyfV1dVkZWVhsVjQys0Qz5u6ujoyMzMB8Pf3v6AL4VLo1q0bH3zwAQ899BC7d+9m9+7dPPzIIzz1yMMEhwQTFdeJ4uIili1bxpo1azh27Jj0Xl9fXwYPHszEiRMZMmQIgYGBF2WDTqcjOjqaVq1akZ+fj0KhwGq14u3tTUBAADExMSxevJiqqiqeeOKJJknEVavVeHp6SjfKuro6srKyuP766y9oBnpOEbLb7dLBg4ODsVgsbNq0ibi4ODIyMpplqRAREUFQUBDBwcEoFAp8fX3POuW7UPz8/Bg9ejRDhw5l3759LFu2jHU//MAw+0nCtGCjvmtlPy8Y1DaIUXPeYNLdEy+oZG1T0KZNGwIDA6muriYnJwe9Xn/RP8orkZKSEk6cOAHU34AudDZxKfTo0UMSov179+CfugPD3L2YNVrW+kXy7YlKTpzKk14fHBzMyJEjmTBhAgMGDGjUtfhSaFhVCCHQaDTMnj2biIgI1Go1RqORzZs388gjjzTJ7L5Hjx689NJLeHl5AfUukWeeeeaC02TOeZV16dJFUsuuXbvy2GOPsWrVKoQQxMbGMmHChEteKigUCukB9Znoq1evZvbs2SiVSoxGo9TXvinw8PDg6quvpl+/fowePZr0mXdjt5XCn+VDDFYYNGIkEybcddkFCP4/fSMnJ4f8/HwKCwtlEboATp48KaVrtG/fHl9f38v6+T179uSNBW/xwQN3Mt1+ijCtGYSZtiWpbCqFE9TfaEaPHs2dd95Jr169JPdGUyHqN5tQKBTk5+czZ84cpk6dSocOHUhLS5MEqSnw8/OTqgRAvQh17tz5go9zTmsmTpwo/Vur1TJp0iRuuukmLBYLfn5+TTIQNzc3pk2bJq3d27dvz9tvv80vv/wCwH333UdUVFSTnLBGg1arGXTNNWQNv43k7z+mo9qO0Q47PEPpdtOdDusH7+XlRXR0NFu2bKG8vJyTJ09e1Jd6pZKdnS01SYiNjXXIUjYqOoqBoT4EF9fPsFFAmBauDvNh8M33c8/Eu+nSpXOzLfP9/f1p1aoVUD8b7NChAy+99BJ+fn7Y7XbmzJnTrM76i+GcSnI2Q5v6zqLVarn22mul/2/oPtGxY8dmH7iHuzvjZr7AhtZt2LBnKwovXzrfdCdXDxuJo1zBarVa2iGrq6uTMsFl/hkhBEePHsVms6FSqejQoYNDnPoe7u6YvAOoKwCvPy8hvQXaJvbl/hfm4ufTNMuuc3HLLbdgsViA+pv8zJkzGTduHHV1dZeczNtcXP41hxPRKjSUiU89g97wGBq1Bg+35t8F+ydiYmLQarWYzWapMJezVvNzJkwmE2lpaUD9zTImJsYhdgT4+dFpwoP89lomPQxFCCDZuzVdJz6Ir7dXs39+g3+mAa1We1lu6pfCFS1CAEoF+Ho1/4/jfGnwZZSUlHD06FHq6uqavApfS6SyspLjx48DEBIScsm1ei4WpVLJiFvHszs4hKNbfkOhUNBnyAh6D7haDrc4B1e8CDkbYWFhhIaGUlJSwsmTJ6msrJRF6DwoLCyksLAQqHf+NmVQ3oWi1Wi4euhwBlw7HBQgz2P/Hvn8OBl+fn5SlHhxcbF0Ycn8PceOHaOyshKor6Dp4eHhaJNQygJ0XsjnyMk4PdK3urpadk6fBw1OaZPJJLV8lv1oroP8TTkZSqWSjh07olAoMJlMcn/686AhzQXqY8Eupd63zOVHFiEnJCoqSlpOZGZmNknUeEtGr9dLqRABAQEOc0rLXByyCDkhpztWc3JypAA8mbNzerpGmzZtCA0NdbRJMheALEJOSGhoqNRt48SJE5SVNUGDuRbM8ePHKS8vB+rjrC62k4WMY5BFyAnx8fGR0lUa0jdkzs3pLZ87dOjgdGkJMn+PLEJOiEajOaPAmczZadgZE0Kg1WovuOWzjOORRcgJaShwplarsdvt8g7Z31BbWyvVEPL19W2WhGeZ5kUWISelocAZ1C83Gsp/yjSmrKyMnJwcoL5TsNy51vWQRchJCQ8Pl3Z5srOzpWhgmcac3vK5Xbt2Dk3XkLk4ZBFyUoKCgqT0jcLCQulCk2lMdnY21dXVQH0NoctRD1ymaZFFyEnx8PCQ/BsVFRWcOnXK0SY5HUIIUlNTsVqtqFQqOnXqJDulXRBZhJwUlUpFbGwsCoUCo9EopSXI/D8NNZegvo5Ow46ijGshi5AT07FjR3Q6HUII0tLSpCLmMvXo9XrJKR0UFHTBBdZlnANZhJyYyMhIqaRuTk4OtbW1jjbJqcjPz5d6bLVt21ZuCuCiyCLkxISGhhISEgLUd5KoqKhwtElORW5urpSu0aFDhzNKm8q4BrIIOTG+vr5ER0cDUFRURF5e3iUesWWRkZGByWQCmr/ls0zzIYuQE+Pu7i4VbG9oiChTz+ktn93d3WWntAsji5AT05C+oVQqsVqtZGVlyekbf2IwGKR0jYCAADldw4WRRcjJiY6OblTgzGq1Otokp6ChEQA0ji6XcT1kEXJyTt/1OXbsmFzg7E9OnjxJSUkJUC/Ucg0h10UWIScnODhYin/Jz8+X0zf+5NixY1INobi4uGZrqyzT/Mgi5OR4e3tL/o6ysjI5fQOw2+2kp6djs9nQaDQOa/ks0zTIIuTknN6f3mAwyDtkOE/LZ5mmQRYhJ0ehUBATEyMVOGvoT38lU1FRIRW2DwkJkWsIuTiyCLkADf3pAdLT06UAvSuVwsJCioqKgHrHvVxDyLWRRcgFaN26NcHBwUB9942qqipHm+RQMjMzpSJvHTt2xN3d3dEmyVwCsgi5AAEBAdIOWVFR0RW9QyaEICMjA7PZjFKppFOnTnLLZxdH/vZcgNPTEiorK6/o7htWq1Vu+dzCkEXIBTi9aqDRaJTSFa5EqqurpZbPQUFBcsvnFoAsQi5CdHQ0bm5uQH33jSt1h6y4uFhK12jbtq2crtECkEXIRWjbtq20Q5adnS1FC19p5ObmSnWV2rdvL7VFknFdZBFyEUJDQyXndG5u7hXbnz4zM1OqMCnXEGoZyCLkIvj5+REZGQlAaWnpFVngrCFdQwiBTqeT0zVaCLIIuQharbZRf/orMX3j9BpC/v7+cg2hFoIsQi5CQ4EzlUqF1Wq9InfIysvLyc3NBeoDOMPCwhxtkkwTIIuQC9G+fftGBc6utP70eXl5Ug2hdu3aSY56GddGFiEXIiIiQkrfOL398ZXCsWPH0Ov1gNzyuSUhi5ALcXqDv/z8fEpLSx1t0mXj9JbParWa+Ph42SndQpBFyIXw9PSUWgCVl5dfUQXOzGaz5Afz9vaWawi1IGQRciE0Go20Q1ZXV3dFOaerqqo4fvw4UD8jlGsItRxkEXIxOnXqhFqrxW63k/ZnzMyVQH5BASfz6ls+t4uKOmvL57Odiyvl/LgyakcbcCVSXV3N7t27qaiooFOnTnTu3FkqR2GxWNi+fTsxMTFEREQ0ep/FaqWuupLuniqsKshLT6WispKAFl7Uq7CwkA1fLybWWIqXFqIj2+LxZ7qGEIK9e/eyevVqjEYj/fv3Z8yYMVgsFlatWsXBgwcJCQnhtttuk5ayMs6FQsi3isuKyWTihRdeYM+ePURGRpKRkcGcOXMYMWIEAD/99BOPPvoo7733HqNGjZLeJ4Tgt59+JHXOQ/Qz5KFVwF6bO4r7Z3P9xPtQqZQt7q6vUCioMdTy/etziN70De3VNsossLV1V25btIyO8fGcOnWKyZMnk5CQQGRkJEuXLmXOnDnk5+ezfPlyxo8fzx9//IGnpycffPCBvKPmhMgzocvMqVOnSE5OZt68efTs2ZOZM2fy/fffM2LECLKysvjkk0+w2WxnCEqdycThbxczSJ9HoA4EcK2qjvc/ep13vlqBqoUW9hIWMw8Ys0j0sGEDfFVgzj/E7h9X06FTJwoLC4mKiuL555/H39+f/fv3k5ycjJeXF48//jhjxozB09OTb775BrPZLIuQEyKL0GUmMDCQF154gZ49e1JZWcmpU6fo2rUrBoOB999/n/79+wOcUarDYrVCVTnuSrBTL0JqBWgMeg7nHHL0sJoNNeBdnzKHEGBXgBdQV16KADp37sxrr72Gp6cnP/zwA+np6YwbN44RI0ag1+v5z3/+w8qVK7nlllukQE8Z50IWocuMn58f/fr149dff+Xjjz/G09OTyZMn8/XXX1NSUsLDDz/M1q1bqa2tlWJiADzd3fFM6Ev2wT/oqqmfJRVbIc+/NT3CW3BNHSFINRynj7USDzXYBWRqPGnT8yoUCgXu7u6UlJTw6quvcvDgQR5++GGGDRuG3W7Hzc2NAQMGUFFRwe7duykqKpJ31ZwQWYQuMxaLhU8++YS1a9dy1113ceutt6LT6di6dSsFBQXMmzePlJQUTCYTHTt2pEePHgCoVSpGTnmIpdmZHNy0Gh2CE63j+NdrH9KpS1dHD6vZsAvBrt828N0H8/A+mcEJI5iHDOc/192IgvoiZ7NmzSIkJISPP/6YqKgojEYjr7zyCiNGjGDYsGG0bduWSZMmUVpaKouQEyKL0GUmMzOTTz75hIkTJxIbG0tKSgrBwcHMnTsXvV6P0Wjk5MmTXH/99Wfs5rRt2xbvq67lqa+/Q9gET9w1lkHXDqWlxw2PuXMiah9/ptw9kZLKKkYbBeo/6wglJSWxfft2brnlFr788kvsdjvXXHMNNpuNV199lfHjx7Njxw4iIiLkUrBOiixCl5m6ujqio6NJSkoiKSkJIQTDhw9n6tSpANhsNq699lr69et3RoKmxWJh3549WGx2dG5u9O/Xr8ULEIBSoaBXr160jmxHSWUK6WlHKCoqIioqirZt2/Lggw9itVqB+nrcGo2GadOm8dVXX5GcnEybNm2YPn263J/MSZG36C8zNpsNs9ncaPdLrVaj0WhQKBQIIbBYLKhUqjOqBhYWFnLDDTewf/9+2rVrxy+//EJcXJyjh3RZMJvN3H333axYsQIvLy/WrFnD0KFD//F9NptNrr7o5LTMfV0nRqVS4e7ujoeHh/TQarVSMqZCoUCr1Z71wsnMzJSKmXXu3FlKZr0S0Gg0dOvWDagvbnbgwIHzep8sQM6PLEIughCCffv2Sd1Xe/fufUVtOSsUChITE/Hw8EAIwYEDB7BYLI42S6YJkEXIRbBYLJIPycPDg969e19xpSxiYmKkFj9paWmUl5c72iSZJkAWIRehqKiIgwcPAvXFzTp16uRoky47oaGhkg8sNzdXKvUq49rIIuQiHD16lBMnTgDQtWvXK7K+speXFwkJCQBUVFSQmprqaJNkmgBZhFyABn9QTU0NAL169boic6AUCgXdu3dHo9Fgs9k4cODAFduJtiUhi5ALYDQa2blzJ0IIfHx8rkh/UAPx8fFSLaFDhw5Jwizjusgi5AIUFhZy5MgRoD5qumPHjo42yWG0adNG6jeWlZV1RZW4banIIuQCpKamSh1XExISpI4bVyJ+fn507twZgJKSkiuqxG1LRRYhJ0cIwZ49e6itrUWpVHLVVVeh0WgcbZbDUKlUdOvWDaVSidFoJCUlpcUVc7vSkEXIyamtrWXv3r0A+Pr60qNHjyvWH9RAQkICPj4+AOzbtw+j0ehok2QuAVmEnJxTp05J/qCoqCip28aVTHR0tJSykpGRcUX1X2uJyCLk5Bw6dIiCggIAevTocdYuE1caQUFBdOjQAYCCggKysrIcbZLMJSCLkBNjt9vZs2cPJpMJlUpFnz59pEqLVzI6nY7ExESgvnNJQyS5jGsii5ATo9fr2bNnDwABAQF0797d0SY5BQqFgoSEBNzd3RFCkJKSItUTknE9ZBFyYk6ePMnRo0eB+uTN9u3bO9okpyE2NpaQkBCgPoShsrLS0SbJXCSyCDkxKSkplJSUANC9e3f8/PwcbZLTEB4eLvWjP378uJzM6sLIIuSk2Gw2du3ahcViQaPR0L9/f7lA12l4enpKyazl5eXSDqKM6yGLkJNSVVXF/v37gfrdoIYLTqYepVJJ9+7dUavVWK1WUlJS5GRWF0UWISclOztbSkno0KEDbdu2dbRJTkd8fDwBAQFA/dJVTmZ1TWQRclIOHDhAWVkZUF+6oyFCWOb/iYyMJDKyvj1rZmYmhYWFjjZJ5iKQRcgJsVqtJCUlYbPZ0Ol09O7dG2UL7TV/Kfj5+UkVJouLi+VkVhdF/mU7IeXl5ZI/KDQ0lK5dW26H1UtBo9GQmJiIQqGgrq6O5ORkOZnVBZFFyAnJysoiOzsbqPd7yJ1Dz023bt3w9vYG6v1CZrPZ0SbJXCCyCDkh+/fvl4Lvevbsiaenp6NNclqioqKkettHjx6V4qpkXAdZhJwMs9nMzp07sdvteHh40KdPnyu+dMffERISIlWaPHnypDSDlHEdZBFyMkpLS6WEzNatW9OlSxdHm+TUuLm5SZ1Z9Xo9hw8fdrRJMheILEJOxumtfeLj42nVqpWjTXJqFAoF3bp1Q6fTYbfbOXDgADabzdFmyVwAsgg5GXv37pVaPV911VW4u7s72iSnp2PHjlIy6+HDh+VkVhdDFiEnwmg0SqU7vLy86Nmzp+wPOg/Cw8OlCgM5OTmcPHnS0SbJXACyCDkRhYWFkj/oSm/tcyF4e3tLvrOysjLS09MdbZLMBSCLkBORlpYm9dHq2rUroaGhjjbJJWhIZlWpVFgsFrkzq4shi5CTIIRg7969GAwGFAoFffr0QavVOtosl6Fr1674+/sD9XFWtbW1jjZJ5jyRRchJqK2tlfxBvr6+sj/oAomMjJQiy48dO0ZRUZGjTZI5T2QRchIKCgpITU0FoF27dsTFxTnaJJfC39+f+Ph4oN63lpGR4WiTZM4TWYSchNTUVKm1T0JCAkFBQY42yaU4PZnVYDCQkpLiaJNkzhNZhJwAIQS7du2irq5ObvV8kSgUCrp06SLl2cnJrK6DLEJOQE1NDfv27QPqlxUNPbVkLoyYmBgpmTUtLU0qCifj3Mgi5AScOHFCim1p37490dHRjjbJJWnVqpXkSzt58iQ5OTmONknmPJBFyAk4dOiQtJuTmJgo1U2WuTDc3d2lZNbKyko5mdVFkEXIwdjtdpKSkjCbzahUKnr37i239rlIGpJZtVqtnMzqQsgi5GCqqqokf1BwcDA9evRwtEkuTadOnQgODgbqZ5jV1dWONknmH5BFyMEcP35cimmJjY2lXbt2jjbJpYmIiCAqKgqoT2bNz893tEky/4AsQg7m4MGDlJaWAvWlXH19fR1tkkvj4+ND586dgfoCcWlpaY42SeYfkEXIgTS0erZarWi1Wvr06SO39rlEVCoVPXv2RKVSYTKZ2Ldvn9yBw8mRf/EOpKKiguTkZKC+VrLc6rlp6Ny5s9Qs8vDhw9TV1TnaJJm/QRYhB3Ls2DGpMHtcXJzc2qeJaNeuHREREQBkZGTIyaxOjixCDmTfvn2Ul5cD9aVcvby8HG1SiyAoKEjyC+Xl5cmdWZ0cWYQchMViYc+ePdjtdtzc3ORWz02IVquVghZra2s5fPiw7BdyYuRfvYMoLS3lwIEDQH1rn4YyFDJNQ0JCAh4eHggh2L9/P1ar1dEmyZwDWYQcRGZmJsePHwfqW/s0+DBkmoa4uDipXdKRI0ekZa+M8yGLkIPYt2+f1Nqnd+/ecmufJub0ZNYTJ05Igi/jfMgi5ABMJhNJSUkIIfD09KR3795yKdcmxtPTk65duwL1oRBy0KLzIouQAyguLpZa+0RERNCpUydHm9TiUCgUdO/eHa1Wi81mIzk5We7A4aTIIuQAjh49KjXo69Kli9zquZno3LmzVBbl4MGD6PV6R5skcxbUjjbA1bBYLGzbto2kpCQCAwMZOXIkbdq0oaamhp9//pmsrCy6du3KsGHDcHNzO+P9NrudLdu2odfXgEJB37590el0jh5WiyQiIoLIyHYUFhaSeSyb4ydO0q1r49w8i8XC1q1b2bNnD0FBQYwcOZKIiAiOHDlCUlISUD+rGjhwoNTlVaZpkWdCF8jGjRt55plnKC8vZ8OGDcycOZOysjI+/PBDPvvsM0wmE6+99ho//fTTGe+tqqrmm/cWoF/9GXf4C7r4uhEfHy/7g5oJTy8vOrRrwxAvuM6cz9qXn2Ff0u5GMUO//PILs2fPpqKigp9//pl///vfVFVV8e2337J8+XIOHDjA/v375d21ZkSeCV0ADQ0KR40axXPPPUdqaiqTJk1i586d/Pbbb0ybNo2ePXvSs2dPqRFfAza7nR+XfAYfPs9DahOq1nDYZOLEto0Yhw3HTSc3OmxqUlMOkJCdxNMR4KmyUZT8I7++UELQR8uJjIxECMG+ffu46aabmDVrFgcPHuT+++8nOzubwsJCJk6cyNVXX01AQIAczd6MyCJ0gUyePBlPT09qa2vZuHEjvr6+mM1mioqK+Prrr/nvf/9LUFAQs2bNavS+an0NhZt+4AalCc2fhRO7aOyc2L6ewsInaRcZ6eihtSiEEBz6fSPdK3LxcQM7EK6D9jn7SU/eS+Sf5/vee+9t9H36+Pjg4eFBVlYWqamprFixgoCAAGbPnk1sbKyjh9UikZdjF4BCoaBt27bk5eXxxBNPsHHjRp577jkCAwOprKxkwIABvPjii1RXV/Ppp582mvYLBAg7py+8FADCLqcUNBMCgeJsz/55vhu+z5MnT/L444/z+++/8+yzzxIREcFtt93G888/z/z586mtreXTTz+Vd9eaCVmELpBdu3YxY8YMoqOj+d///seQIUPw9PQkLCyMkSNHkpCQQL9+/cjPz2/0o/Xx8iZk8A0k2zTY7PUClG5RorpqhLw71gwoFAo6DxrKAd8Iamz157vYBNltE+iQ2Et63Y4dO5g5cyZxcXHS92k2m+ncuTODBw+mY8eO9O/fn8LCQlmEmgl5OXYB2Gw2vvjiC4xGIyEhIfzyyy/odDoSExMJCwvjs88+Y9CgQWzatIkbbrihUUKqWqXkxkn/4nuzmY+XfEBZQSGHlJ68dt3NuJ9lF03m0uncrTtvtk5gwx+n6OClJnTAUIY9+Zy09LXZbCxevBiLxUJwcDDr16/H3d2dmJgYXnjhBUaPHk1cXBw///wzY8aMkRsQNBOquXPnznW0Ea6C1Wrl5MmTCCHIz8/n5MmTlJWVMWDAAPr168euXbvYs2cP/fr145577jlji97d3Z0uVw1gfXYBH23aRaHJzqBBV8vF7ZuJ0pIS3n7/Q3aeLKY4NIr/fLqE7j0Spd3Ihu/TbrdL32dFRQWDBw8mJiaGTZs2cfjwYQYOHHjW71OmaVAI2SFx3pzrVJ3+ozabzXh4ePztcVauXMndd9+NyWRi6tSpfPDBB/JdthnYvHkzY8eOpaqqilGjR7Ni+fJGOXr/9H2aTCbsdruc19fMyD6hC0ChUJz10YBarf5HAYL6rPmgoCCgvvxoQyKrTNOyb98+qeVPn969z5jJ/NP3qdPpZAG6DMgi5ADCw8OJiYkBIDs7mxMnTjjapBaH2WyWitx7eHjQs2dPOSjUSZFFyAH4+PhIfqDS0lK5XXEzUFJSwqFDh4D6onEdOnRwtEky50AWIQegVCpJTExErVZjsVjkDO9mIDMzU5phxsfH07p1a0ebJHMOZBFyEF26dCEwMBCAlJQUampqHG1Si2L//v2SP6hXr17yzpYTI4uQg2jbti3R0dFA/V27obSHzKXzV39QYmKi7A9yYmQRchB+fn5SR4ji4mK58l8TUlxcTEpKClC/CdCxY0dHmyTzN8gi5CBUKhU9evRAqVRiMpk4cOCAnEPWRBw7dkyaWXbq1En2Bzk5sgg5kG7dukmV//bs2YPBYHC0SS2C5ORkyR+UmJgo+4OcHFmEHEhUVJRUUiIzM5PCwkJHm+TymM3mRk0E+vTpI/uDnBxZhByIv7+/1K64qKhI9gs1ASUlJaSmpgIQFhYmxwe5ALIIORCNRiO1f66trSU5OVn2C10if40PksukOD+yCDmYhIQEfHx8ADhw4ABGo9HRJrk0p/uDevXqJed+uQCyCDmY9u3b06ZNGwDS0tIoKipytEkuixwf5JrIIuRggoODJb9QXl4eGRkZjjbJZflrvpjcVNI1kEXIwWg0GumOXVNTw4EDBxxtksuSkZFBbm4uUN/4UPYHuQayCDmYhnbFnp6eQH3Ok8lkcrRZLocQgpSUFKnLamJiouwPchFkEXIC4uLiiIiIAOqLnJWUlDjaJJfDYrGwe/duuX6QCyKLkBMQGhoq5TedPHmS7OxsR5vkcpSUlEh1mcLDw4mPj3e0STLniSxCToBOp6N79+4A6PV62S90EZxeiaBDhw6EhoY62iSZ80QWISdAoVDQu3dvPDw8sNvt7N27F4vF4mizXIpG9aT79JH9QS6ELEJOQlxcnLSbk5qaSnl5uaNNchnketKujSxCTkKrVq2kPKfc3FzZL3QBnO4PkutJux6yCDkJnp6eJCYmAlBRUcHBgwcdbZLLcHp8kFxP2vWQRchJUCgU9OjRA51Oh91uJzk5GZvN5mizXIL9+/dL8UE9e/aU6we5GLIIORGdOnUiJCQEgEOHDlFZWelok5we2R/k+sgi5EREREQQFxcH1DdFPH78uKNNcnqKi4ulpWt4eLicL+aCyCLkRHh5eUnF78vKyjhy5IijTXJ6/lpPOiwszNEmyVwgsgg5EQ1NETUaDVarlX379sl+oX/g9PgguZ60ayKLkJPRtWtXgoODgfoCXQ0OV5kzOb2etIeHh1xP2kWRRcjJaNOmDVFRUUC9XygvL8/RJjktJSUl0pJVjg9yXWQRcjJ8fHwkv9DpRbpkzkSuH9QykEXIyVCpVPTq1QuVSoXZbJaL358DIUSj+CC5nrTrIouQE9K5c2f8/f0BSElJoaamxtEmOR0Wi4W9e/dK/qAePXrI/iAXRRYhJyQqKkryC2VkZJCfn+9ok5yO4uJiaakqxwe5NrIIOSH+/v4kJCQAUFhYKDdFPAt/7S8mxwe5LrIIOSFqtZrExESUSiVGo5EDBw7IfqHTEEJw4MCBRvWk5fgg10UWISclISEBX19foD5eqK6uztEmOQ1/7Tcv54u5NrIIOSnt27cnMjISqG+KWFhY6GiTnIbS0tJG9YPketKujSxCTkpgYKB0cRUUFJCVleVok5yGjIwMKV+sY8eOcj1pF0cWISdFq9VKTRENBoO0HS3TOF+sb9++cnyQiyOLkBOTmJiIt7c3UO8XMpvNjjbJ4ZwewCn3m28ZyCLkxLRv314qVZqenk5xcbGjTXI4f40PkvPFXB9ZhJyYkJAQunTpAtQ3RczMzHS0SQ5Hjg9qecgi5MS4ublJxe/1ej0pKSmONsnhyPWkWx6yCDk53bt3x9PTEyEEycnJV3RTRJPJ1ChfTI4PahnIIuTkdOjQQVpyHD58mNLSUkeb5DBKSkoa1ZPu2LGjo02SaQJkEXJyWrVqJV1sV3pTxKysLLmedAtEFiEnx93dne7duwNQVVV1RRc527dvX6P6QbI/qGUgi5CTo1AopARNu93O3r17sVqtjjbrsmM2m9mzZ4+UL9arVy/ZH9RCkEXIBYiPj5dSEw4ePHhFNkU8vZ50WFiYHB/UgpBFyAVo3bo1MTExQL1fqKGu8pXE0aNHpXF36dLljHrSVqsVo9EopbbY7XZsNlujh5z24pyoHW2AzD/TUK7it99+o6ysjJSUFHr27Olosy4bf60n3bNnTylfTAjBvn37+Pzzz6mqqqJz587cd999bNiwgZ07d6JQKFAoFAghmDx5Mr169XL0cGT+gjwTcgGUSiU9e/ZEq9Vis9lITk7Gbrc72qzLhtlsPmc96YqKCl588UW0Wi3jxo1j06ZNfP7550RERJCQkEC3bt1QKBRs3rwZpVL+uTsj8kzoMpKbm8u3335LSUkJCQkJjBkzBjc3N3799Ve2bduGr68vN998s7T0Op1OnToRFBREfn4+Bw8epKqqSiqG39I5vfVReHh4o/pBNTU1REZG8vTTTxMeHk5ycjLp6enMnDmTwYMHYzAYeOKJJ3jsscekXUYZ50K+NVwmamtrmTt3Lrt37yY4OJhFixaxdOlStm/fziuvvIKPjw+pqak899xzVFVVnfH+Nm3aEBsbC9THyzTkT10JHM3M5PiJ+vig+Pj4Rv6g8PBw5s+fT2BgID/88AObNm1i6NCh0t+///57KioqGDdunDwTclLkmdBloqKiApPJxNy5c4mPj8doNLJ7927sdjtBQUE8/PDDbNu2jXnz5lFTUyOVdm3Ax8eHbt27s3nzZopKSjmUmio1SWyp2IXg8IH9bPz0A+Jseo6rIPE0fxDU92krKyvj7bffJi0tjalTpzJu3DgUCgWVlZV8++23jB8/noCAAEcPR+YcyCJ0mQgODuaNN94gNDSUlJQUtmzZwsiRIxkwYACffvopd999NydOnKB///5SL/rTMZnN+KsEo3zBR2nh4OqlZPftS3T79o4eWrORsm8vG6ffy/UFqdwRCfsMUFGWR21dHR5/ClFVVRVz5szBy8uLRYsWSa2SAPbu3Ut1dTWDBg1y9FBk/gZ5fnqZ0Gq1+Pj4sGjRIqZPn06/fv2499572bt3L35+fowZM4aRI0eSnp5+Rv95IQR//PQDYRuW8EY4vNQaRqT8xPevPkfVnxUGWxo2u53dq7+mb14q7XTgp4Kh3uC57Qcy0tOl12VmZrJlyxZKS0tZsGABDz/8MIsXL8Zut7Nr1y5iYmLk8q9OjjwTukwYjUZee+01MjMzeemll+jXrx8A27ZtY+DAgdx7772UlJQwbtw4jh8/3uiObrbayPjlewaaKnHTgQBidXBs329kZ2XSI7Hlbdfb7HasFWV4K8EOCAEqwMuoR19VKb0uPDycefPmYTKZpDighnM3bNgw3NzcUKlUjh6OzN8gi9Bl4tixY6xatYprr72WXbt2sX37duLj4+nRowerVq1i2bJlZGdno9VqadeuXaP31tYaKMzPR/mXLAWF3Y7d1jK36jUqFf6dE8na+DVXYQMFGOzwW5mJ8F9/o0ev3nh5eREWFsZdd9111mNcddVVjh6GzHkgi9Blwt3dnTvvvJO6ujqpfY9er+fuu+9GrVbz+++/4+7uzgsvvNBIhKqqqnhj/nwWb0kixBtuVIFaATkW+M5gplVRES1vHgQKoEbjzofFCm71gnAPDVuqbawsMSPeeotag4Fnn32WoKAgR5sqc6kIGafAbDYLq9Xa6LmioiLx8MMPC61WKwDRxttNvDgwXrzcs61I9FIKBYhRo0aJ8vJyR5vf5BQWFoqBAwcKQHi6u4k3XnlZzHrmGeHp5SUAoVarxT333CNOnjzpaFNlLhFZhJyU3NxccddddwmVSiUA4e3tLV78z39E9vHjYlfSHpHYs5cAhJubm/jss8+E3W53tMlNht1uFx999JEkvkOHDRPl5eWirq5OvP322yIwMFAAQqFQiFGjRom0tDRHmyxzCcgi5IQcPXpUjBo1SigUCgGIoKAgsXDhQlFXVye95vPPPxfu7u4CED179hTHjx93tNlNRl5enujbt68AhIeHh1i2bJn0N7PZLBYvXiwiIiIE9T56MXDgQJGUlORos2UuElmEnIzk5GRxzTXXSBdYeHi4WLJkibBYLI1eV1FRIcaMGSMAoVQqxZw5c85YzrkidrtdLFy4UGg0GgGIG264QVRUVDR6jc1mEz/88IPo2LGjdJ4SEhLExo0bW9SM8EpBFiEnYvPmzSIxMVG6sGJiYsSaNWuEzWY76+s3btwogoKCBCDatm0r9uzZ4+ghXDK5ubnSOfDy8hKrV68+52u3bt0qevfuLZ2vqKgosXz58hYhxlcSsgg5ATabTfz444+iQ4cO0gXVvXt3sWnTpr+9sxuNRvHII49I75k8ebIwGAyOHs4lnYcFCxYItVotADF27FhRVVX1t+9JSUkRw4cPl85BaGioWLRokTAajY4ejsx5IouQg7FYLOLrr78Wbdu2lS6kAQMGnPes5tChQyI2NlYAws/PT6xdu9bRQ7posrOzRUJCggCEr6+v+PHHH8/7fbfddptQKpXSe1966SWh1+sdPSSZ80AWIQdiNBrFhx9+KEJCQiQBuu6660Rqaup5H8Nms4nXX39dmj0MGzZMlJSUOHpoF4zNZhOvvPKKtBs4fvz4CxKRgoICMXXqVGlHzc3NTTzxxBOitLTU0UOT+QdkEXIQNTU14tVXXxW+vr6Sc/n2228XOTk5F3ysvLw8MWDAAAEIrVYr3n//fZdz0GZkZIj4+HgBCH9/f7Fhw4YLPkZlZaV47rnnhNdfYolOnDjh6OHJ/A2yCDmAiooKMWvWLOHh4SEAodFoxAMPPCAKCwsv+pjLli2TLr4uXbqIjIwMRw/zvLHZbGLu3LnScmrixImitrb2oo5VW1sr3nrrrUaxRDfeeKMcS+TEyCJ0mSksLGy0bHB3dxczZsy45Kjn6upqMX78eOnCmzFjprA4+S6RzW4XFVXVImnvPhEbGycAERwcLP74449LOm5DLFGbNm0a+dl2797t6CHLnAVZhC4jubm54o477pD8Hr6+vuLll19uMgfq1q1bRVhYmABEdHiYWPH1UlH+lxgbZ6G0rEwsees1seCWoWJa/y4iQFM/C/rXv/7VJDtbDTuOp8cSde3aVfzyyy8ut1Rt6cgidJlIS0sTN954oxQFHRwcLD744IMm3Uq2WK3ioXsnibv9Ef+LRHzS0Uu8ff+dTucTqTOZxCdznxHLYtTiSAfE4Y6IBeGIqEBfsWLlSlFZWSmMRmOTxPts3bpV9OnTRxKidu3aiWXLlp0R/CnjOBRCyM2Ympt9+/bx5JNPsnXrVqC+XvSrr77K7bffjlp9/oUMLBYLFosFk8lETU0NNTU16PV6ysvLKS0tJS8/H8PaL7i9PA1vFSDgoFFB8ZQ5TJo1B5WT1FjOOZ7L6gnDuakiE6WqPmPeZIcZxRoygtoTEhxMUFAQoaGhtGrVSvpvSEgIfn5++Pr64uXlhU6nQ6vV/mPt6EOHDvH000+zYcMGAEJCQpg7dy5TpkxBp9M5+nRc8cilPJoBQf2FBfDHH3/w5JNPcuDAAaC+a8aCBQu4/vrr618rBGazGbPZjMlkQq/XU1lZSVVVFeXl5ZSXl1NWVkZpaSklJSUUFxdTVlaGXq+XhMhkMmGxWLBZLMxrDd4BYAUUCminEmSmHcBoNuPpJL3bbTYraptFqo8kAJUChMnC0fR0jp5WORHqW2HrdDrc3Nzw8vLCx8cHf39/WrVqRVhYmCRQISEhBAUFERAQgL+/Px4eHuh0Orp27conn3zC7Nmz+fbbbykuLmbWrFmUlpYy5f77qSwvR6lS0TYyEs/T6lfLXB5kEWpCDLW17PhtI7n7duERGEyduzevv/EmGRkZAPj5+XHTTTdRVVXFe++9R0lJCaWlpZSVlUmC0yAuBoMBk8mE1Wo97x5jCiDfAjYBSkV97d4qO2iDw9BcwIyruWkVFgaJ13Bsw3GidfVVEw9aVSjjE0i0KCkvL6Ompoba2lqMRiN2ux2j0YjRaDxnC2ylUolarcbDwwMfHx98fX0JDAwkODiYkJAQWrduTZcuXdi/fz9paWlUV1fz2quvkvfr9ySaSrAKBbZ+I7llxvOEh0c0OrbVaqWqqgqdToeXl1fj79xgQKvVotFoHH1aXRZ5OdZEmMxmlr33JrbP5xNrrsagULCkWsOyIjMNJ1itVqPT6TAajdhstvM+tkKhkC4wT09PPD098fX1xc/PD39/fwIDAwkJCSE0NJSanKME//Q5cWY9dQIOhHdm8Ouf0quvc1UZPJaVxY9vzUN5YBt2lRq3waO57l+P4abTodfrqaiokGZ/hYWF5OfnU1hYSFlZGWVlZVRWVkqCfXpp17+jocxrw7lPcIc3W9eXyhVAqklB3h3TmfzCK+j+FJWioiIWLFhAdnY2KpWKu+++mxtuuAGFQkFpaSmvvPIKkydPbvGdT5oT57k9ujhZmZmUL/+IMaIalRsoETzgayapAo6Z619jtVqxWq3A/wuLRqPB3d1dEhc/Pz+CgoKkR2BgoPTw9/eXlhru7u7odDp0Oh0ajUbqSFpbV8fmfgNJ3bcLjZcPI64fQ5eE7o4+PWfQPiaG+xcsorCgAJVKTVjrMOnCP1theiGE1G/eaDRSXV0tzSSLi4spKiqS/ltYWEhpaSnV1dXo9Xpqa2vrl6t/Ef5+nhDrjnST6KARZO7bQlVVNSFBgQAsXbqU9PR0nn32WTZv3sz777/PwIED2bNnDx9++CHbt29n3Lhxjj6dLo0sQn/BaDSyc+dOsrKyaNu2LQMHDsTT05P8/Hx+//13DAYDiYmJ9OjRo1EB9YrSUnwMFaiV9cshoYBgFXQI8cM7OAr/v4hLUFAQwcHBBAYG4ufnh4+PDz4+PpK4aLXaC3JaN+Dh7s71t9wGt9zm6FP5j3i6u9M+Ovq8XqtQKNBoNGg0Gry9vQkODqb9Wdodmc1mjEYjtbW1VFVVUVFRQVlZGYWFhRQWFlJUVERRURF5BQWoTqVgtVejUtYvZS0C7Dr3Ruc9NjaWPn36EBsby8GDByVHdtu2bbn55ps5ceLEec3CZM6NLEKnIYTgyy+/ZOnSpfTo0YOvvvqKm2++mUmTJvHvf/8bvV5PeHg4ixcvZt68eQwZMkR6b3jbtuwOiaS2MBVPDSDgmEXBmKmPcdMDj+Lh7i75Dpq7E6gQgsOHD7N161YUCgWDBw+mY8eO2Gw2tm3bxoEDB4iMjGT48OFn+DiaC7vdTnJyMlu3bkWj0TBkyBA6d+5MRUUFGzZsID8/n8TERAYMGHBR4tuAVquV2iud3qn19HNjNpupravju0/eZ8dnL9MdIwLYo/QicvSd+Pp4S68fPXo0BoOBl156iWXLljFq1Cjc3Nzo0KEDwcHBLFmyRBahS0Q1d+7cuY42wlmwWCx88cUX3H777Tz11FNUVVWRlJREbGws69ev59133+XOO+9kx44dlJWVce2110rv9fH1pcLDnz0pKej1ejIVHuQNvJmbnnyG1mFh6HQ61Gq1tGxqTtLT05k2bRoKhYLjx4+zevVqhg4dys6dO5kzZw4+Pj6sXbuWmpoa+vbte1lsOnToEI8//jharZa8vDy++eYb+vTpw0cffcSGDRvw8vJiyZIltG7dWmp33Rw0LIPd3dxon9CDXN/WpFhU5LTpRPi9TzFy/J3otFqgXjhPnTqFWq2mW7dudOrUiZUrV9K3b1/CwsKoqanh22+/ZfDgwURGRjb7OWyxODpQyZmw2WyioKBA5OXliQ8++EAMHDhQvPHGG6K8vFwcOnRI2Gw2ceTIETFkyBDx8ccfn/F+q9UmDh08KNatXCZ+/+VnUVpW5pBxrF27Vjz55JPCZDKJrKws0a9fP7F161Zx//33i7lz5wqbzSZWrVolhg4detky7hcvXiweeOABYTQaRUlJiRg8eLB45513xLBhw8T27duFEEK8+OKL4v7777/sgYQ1tXWi5rTSuQ2YzWbx2GOPiUWLFgm73S6OHj0q+vbtK3bs2CGEEKK4uFgMGTJEbNmy5bLa29KQl2OnoVAoaNWqFWVlZZhMJjQaDVlZWbi5udG+fXsWL14s3cHP5oxUqZR06dqVLl27OnQcQ4cO5ZprrmHDhg0sWbIEPz8/QkNDycvL48Ybb0SpVBIXF4fFYqGiouKytM0ZMWIEQ4YMQaVSsWXLFurq6mjbtq20/V5XV4derycvLw+TyXRJS7ILxdP97PFTarWafv368f7773PkyBFOnDhBt27diI+PB+p/Lx4eHnJzxUtEFqHTqK6u5uuvv2bUqFE8+eST9O7dm3//+9/k5uby5ZdfkpaWxsyZM6WLyVlx/zPgzt3dnVatWrF7924pVsntz4BFtVqNSqU67xikS6VVq1bk5uby7LPPsm/fPh599FGuu+46MjMzef3114mIiGDnzp3ExsY2u8/sfFEoFIwbN4527dqRkZHByJEj6devH76+vgD4+PjwyiuvyEuxS0QWodNQKpX89ttvZGdnM27cOH766Sdat24tdU+97777qKmp4fvvv6dDhw507tzZ0Safle+++w673c64ceMYNGgQt99+O2lpafj6+nLq1CkASkpKUCqV0gXV3GRnZzNjxgzatWvHRx99RExMDBaLhUGDBpGYmIharcbHxwe73e5UqRQajYZ+/fpJbbtPR6vVkpCQ4GgTXR5ZhE7D29ubmTNn8sEHH7BgwQJ8fX2ZNWsWRqORnj17kpKSIqVfjB071mlFqLa2lo8//hidTkd1dTUFBQX07NkTNzc3VqxYQXBwMKtXr6ZHjx6XZSkmhGDNmjUcO3aM6667jj179rBnzx4SEhJ499136d27NwkJCaSlpfH44487zUxI5vIgR0yfhQYfRUPukd1uP2PZolQqnfZi0ev1fPrpp+zbtw+1Ws2IESMYN24cer2ehQsXkpqaSrt27Xjsscdo27Zts9sjhGDlypX89ttvKJVKhBCo1Wruv/9+qqqq+OqrrzCZTFxzzTVMnDjRqWZCMs2PLEItmNraWpRKpeQHgvpt57q6Oilk4HLwdz8xhUIh5ch5eno6+pTJOABZhGRkZByKc64nZGRkrhhkEZKRkXEosgjJyMg4FFmEZGRkHIosQjIyMg5FFiEZGRmHIouQjIyMQ/k/Sc8SbYDrTzYAAAAodEVYdGljYzpjb3B5cmlnaHQAQ29weXJpZ2h0IEFwcGxlIEluYy4sIDIwMjOTs48KAAAAGHRFWHRpY2M6ZGVzY3JpcHRpb24ATEYzMlRVODeX9tpqAAAAGHRFWHR4bXA6UGl4ZWxYRGltZW5zaW9uADE0NDbei8i5AAAAGHRFWHR4bXA6UGl4ZWxZRGltZW5zaW9uADE3MTIfLJ1UAAAAGnRFWHR4bXA6VXNlckNvbW1lbnQAU2NyZWVuc2hvdNPgsnwAAAAASUVORK5CYII=;rotation=-25;" parent="1" vertex="1">
          <mxGeometry x="460" y="182" width="229" height="271" as="geometry" />
        </mxCell>
        <mxCell id="IIDY4cQQyGSsEYxzER7c-16" value="" style="shape=image;verticalLabelPosition=bottom;labelBackgroundColor=default;verticalAlign=top;aspect=fixed;imageAspect=0;image=data:image/png,iVBORw0KGgoAAAANSUhEUgAAASEAAAFWCAYAAAAmOitiAAABUmlDQ1BpY2MAACiRdZBPSwJRFMWPMWZUVFa0inBnkUWMQbY0owgkxBSs3czTVBjHx8xERbRo5yJa9QFa9AFa1KZF4CaClkFEqyCifQs3/Xnd51Rq0YXL/XE4XM69QJuicW4oAEqmYyUX5wKZ1bWA7xledKAXA4hozObRRCJOFnzP1qrdwiPnzYTcdbI3v/N4X+wJjl0eL/v1zF9/S3Vmczaj+UYdYtxyAM8ocWLT4ZK3iActCkW8Lznv8pFk3eXTuieVjBFfEfexgpYlvpM79SY938QlY4N9ZZDpu3NmekXq1MOIYwFhqEghjQhm/vFO170xlMGxDQtF5FGAgwCipHAYyBEvwQTDJELEKqaow/LHv3/X0Hb7gdkhgvOGluTA2QjFO2hoQcrgvwaqT1yztJ+PemqKvR5WXe6qAt6KEC8PgK8d+BgX4vVQiPcKoNCtF6FPfNVfJDOpfjMAAAAgY0hSTQAAeiYAAICEAAD6AAAAgOgAAHUwAADqYAAAOpgAABdwnLpRPAAAAAZiS0dEAP8A/wD/oL2nkwAAAAlwSFlzAAAWJQAAFiUBSVIk8AAAAAd0SU1FB+kHCAwLN9hYkbUAAAFZelRYdFJhdyBwcm9maWxlIHR5cGUgeG1wAAAokYVTW3KDMAz81yl6BCPJkjkOxfZfZvrZ43dlaAghk6AhAb12tRb0e/uhr7g0J5LViyxerHqyatnVJk7xbqs1l4hJZbbJ1LqxZVk2/z27M3Oiow2c31GSi9acOKlYdxRyEuMmadwsLS2cwkCB0dxkyaxKak/4WzA4FFdYkgWY3cfFzZHEbUA4d5lkDuNOkoThYPzWrQn+xWe0BW0vXAMgwgeXZ0aqlsnFBI55jDZDhQaGewJ0YWBDiWAIIU6NHs0LHUNBuoJWL8YanNohN56hn1VE9poYbRoi9iv1/wHuAEtOYF4s25pnDf44twCJSciaNEjmuFnWA+N9WVSdYektbnnVAJAKszMsfSr7OG5GbnYmHbLt5Sotb6eY93YFp6ZPI++l50q6bgf3x/24rsfjbh+5FOutFsHhvnx3EaE/3mbWjXkxnlkAAHeySURBVHja7Z13eFTV1off6em9EBIICUmAAAFCkyKCNAvFglhAQfSKHRXhIiriFQsqNlTUq1dBUYogoiiConQIEAgQEpKQECC9ZzLJ9P39EXM+IqCUhJkJ532eecTJzJm1z8z5nb3XXkUhhBDIyMjIOAilow2QkZG5spFFSEZGxqHIIiQjI+NQ1I42QMa50ev1KBQKLBYLJ06cIDY2ltTUVEJDQ9FqtZSWlhIbG0tNTQ1eXl7odDpHmyzjYsgiJCNht9uxWq3U1taya9cuevTowbZt2wgICCAyMpKjR48SGRlJZWUlfn5+GAwGsrKyCA4O5ocffmDAgAEYDAbMZjO9evXCbrej0+lQKBSOHpqME6OQd8dkamtrsdvtHDlyhOzsbK699loOHz5Mz549UavVqNXqv53h2O12jEYjGo2G48ePU11dTWBgIOvXr+eWW25BoVDg6+uLVqt19FBlnBBZhK5QhBAYDAYUCgVr164lIiKC+Ph47HY7QUFBlzx7sVgslJWV4e7uzurVq+nevTtRUVG4ubnh5ubm6OHLOBGyCF2BWK1WampqWLZsGUOHDiU4OBh3d/dm8+fU1taiUCjYtGkTbm5uDBw4EJVKhVotewNkZBG64igvL2ft2rUMHz4crVaLv7//ZRMDk8mExWIhOTmZiooKRo8ejVIpb9Be6cgidIVgMBjYu3cvcXFxVFdXEx0djUajcYgter2eiooKKisrMRgMXHXVVbLz+gpGng+3cIQQ1NTUUFFRQXl5Ob6+voSFhTnUJm9vb7y9vRFCUFxcTFlZGTqdDm9vb0efLhkHIM+EWjhlZWWsXLmSW265hZCQEEebc1a2bt1Kfn4+t912m7w8uwKRRaiF0rDl7uPjg0ajITQ01GkvcLPZTE1NDVlZWQQFBREdHe1ok2QuI875q5S5ZOrq6khJSUGj0RAWFua0AgSg1WoJCAgA4MSJE9hsNkebJHMZkWdCLZCkpCRsNhu9e/d2uW3wuro6vv/+ewYNGkTr1q0dbY7MZcB5b48yF4XZbMZqtRIaGupyAgSg0+no2LEjFosFk8nkaHNkLgOyCLUgCgoKWLFiBYmJiS7rV1EqlXTv3h2z2czy5csxm82ONkmmmXG9W6XMWbFardjtdhISElpEjlabNm2w2Wzo9Xr8/PxQqVSONkmmmZBnQi0AIQTr168nLy+PhIQEp3ZCny9ubm506NCBn376iSNHjjjaHJlmRHZMtwDMZjNHjx4lPDxc2mVqCQghKCwsxGazERQUJCe+tlBkEXJx9Ho9a9asYcyYMfj6+pKfn8/GjRupra3lmmuuoVOnTlJKxIEDB8jIyABArVYzcODARgGMJpOJ9evXEx8fT2xs7CXZtX//frRaLZ07d5aes1gsJCUlkZycTHBwMNdee630+dXV1WzZsoVTp07RqVMnrrrqKimhdu/eveTm5kplQWRaFqq5c+fOdbQRMheP0WgEoG3btlRVVfH000+TlZVFeXk5y5cvZ9CgQfj5+WGxWHj55ZfZunUrZWVlnDhxgoSEBIKCgqRjff/99zz22GP06tWLTp06XZQ9FRUV/P777zz//PN4enrSp08f6W/r16/nueeew93dnS1btpCUlMS1116LQqFg/vz5rF69GpVKxeLFiwkICCA+Ph6FQoG3tzfu7u74+PjIvqEWiOyYdmEKCgrYu3cvN9xwAyqViu3bt1NaWsrChQvRarWsX7+eholubW0tlZWVPP7443Tu3Bl/f/9Gy5sjR46wZMkSfH19uZTJ8fHjx1mxYgW5ubmNnrfb7Wzfvp3Ro0cza9Ys9u/fz4MPPsipU6cIDQ0lKyuLuXPnctVVVzF9+nT27t3LuHHjgPpcM19fX1auXMm4cePkErItDFmEXBiLxUJAQIDkiE5PT6e0tJR58+ZRWVnJ4MGDpeWOXq/n6NGjvPXWW2i1Wjp16sT06dMJDg6mqqqKhQsXMnz4cCmx9GJJSEjg/fff5/HHH8dut0vPKxQK7r33Xvz8/DCbzWzfvh1vb298fHzw9vbmzTffxGg0Mn/+fLZu3cqMGTMaLb38/PyIi4trdEyZloHrb6NcoRQWFpKfn0///v2li1Wv12MwGLjjjjuYMmUKS5cuZefOnUB9asQdd9zBjBkzeOaZZ0hKSuLbb7/FbrfzxRdfSKJVV1dHRUWFtMy7UFQqFW5ubmcsmxQKBbGxsRQXF/PUU0/x008/8e9//5uwsDBUKpWUWmKz2dBoNBw5cgSr1Sq9383NjY4dO/Lrr79SV1fn6NMv04TIMyEXpaSkBL1e3+g5T09PunXrxsiRI7FarSxZsoT8/HygfqdpxIgRdOvWDYCePXty4sQJzGYzGRkZlJWV8corr7Bv3z7Kysro2rUrffv2bVKbd+3axQsvvMDVV1/Ns88+S3h4OACnTp3iu+++45577uHZZ5+lXbt2fP7559TW1uLj4yO9X6PRoFarG4mTjOsji5ALUlNTg5ubm+TUbaBv3778+OOPrFq1CpvNRklJCfHx8QDk5uYyc+ZMHn30Uby8vNizZw+PPvooOp2OuXPnUltbi9Fo5N///jcjRoygS5cul2SjzWZrtHSyWCx8+umnAMTGxrJr1y7c3Ny4+uqrUSqVfPfdd9TV1TFw4EA2bdpEbGzsGVvybm5uDBo0iIyMDLp27eqSaSkyZyLvjrkg6enppKSk0LVr10Yi1Lp1azw8PFi7di1ZWVlMnDiRwYMHo1QqCQwMRKlUsm7dOg4fPsx1113HuHHj0Gq1eHp64ufnh7+/P3q9nl69etGuXbuLtk8IQVlZGTExMbRv3x6oF6G0tDRMJhPHjh3j6NGjFBYW0rNnT1q3bk1YWBgbN25k586dBAcHM23aNIKDg884tslk4vfffycmJkZ2ULcQ5DghF8Nms0ldLM5VidBQW4vZYsXb2wv1X6Knq2tqsFis+Pn5ojpLzI2d5nEUCiHqHd4KBco/P9dut6NQKCQhNRqNmM1mPD09z7kVL4SgsrISs9lMaGjo5TvxMs2GPJ91MYqLi/npp5+YOHHiWf9erdfz2+oVnNrxOwqdO51vvIUB1w5Dq9GQfewYm5d/SfWxI7hHRDPo9nvoGB+PzW7nYPI+Dm7agM1mpdOAwfTqPwDNRS53DLW1HMvIoLZGT3i7KCIiIiSxKS4pISczA7VGQ/u4jvj51vt8hICqaj1VVZUEBAYSdI7Ib4VCQXV1NRs2bGDy5MkOq5Mt03TIMyEXo7q6moKCAuLi4s6IHjZbLHz99nyUn71MAkbMAnZ5tqLzSx/TuXdfvpw2ha57f6K1CkpssK/TQMYv/JITWZkkPf8Q3UqOoQRSfcJoP2sB14+7/YLz0EpKSlnx+lwUv63C3VRLaZsOXPX0PAYMHc6h/clseGUWAel7sCnVGHoP46bnXqFNm7b8/O1yji55H8+KQmrDoun14EyuHjb8rJ9vNpspKCigdevWsgi1AGSfkAtht9vZsWMHUVFReHp6nvH3EydPcuC1mQwzFuGhAU81hNTVsM+koFqhwWvZOyRqbWjUEKQBS9EpjvhEkLtxDdcc3U4bNwjQQISphu0nCoi77iY8PTzO2z4hBD8s+QzPz19hCNVEK0yEl+WzJT0D354D+e2t/9AvaR3d1SZiRB2KY6nst2ox6zw4MudBRhanEW+ppHVhDtv2JxPYf1ijiO4GVCoVmZmZ5OXlERER4eivReYSkeOEXAibzYbBYDjn3411dWjq9KgVIKh/uKvh1NEjrF31LZ5WE0JRv/QRgDd2KgoLUBSfwldd7w+yA+4q0JblnxEC8E+YrTbKDiQRp7AilGAD/DQQUpDJgb170B07SJgO7Ir6R5QWTvy+jpUfv0/Xmnw8NWBXQoAO2hccJWP/nnN+VkBAAB4XIJAyzossQi6EwWCgR48eBAYGnvXvrcLCMHXoSZEVVNQ/Msywcs9hvlq9hk16MNnqn7cJ2FmnxOrtjzIqnkLL/7+n3ALWyI4XnJGvUilR+wVgEPU/LMWfgmfQeHL8xEkySyqwA4o/H2Zg26E0Vny7CrP9/58HsCiVqDTnrosUGRmJEOKigyplnAd5OeZC7N+/n8zMzHMml7q7uWHxD+GLXzeTV17F7lpYVAJH6wR2ASVegaiDW1FktrG6xMz/SgQHj+UQ13cARTaBobSEApuK5DYJDHj6JWLjOlxQ1rpSoUB4+bJjxza8q8qw2yHFrmOdext+3LaL5OP5BKkgVAU1NvihTsPKUjvlVoFGAV08QKuAU2ZIatODkQ8/jZ+v71k/y2Kx8OuvvxIeHi73K3NxZMe0iyCEoLy8HJVKhZ+f3xl/Lyws5Ndff+WbZcv4448/MBoMNIQKtm3blhtuuIHb77iD1q1bU3Ayl3ff/5Dv1qwBIYiIiOCxxx6ja2x7EHY6dO9JVFTUGQJUUFDA+vXrqa2tZfDgwVKW++nY7Xb27d7Fvu9XYKmuJLmwnB+27KSsrBSAEQOu4oZuHdC6eRDU4yoOHs1kzZo1ZB9NI15lo60bZBrBEBrJ5Pvu46abbqJTp05nBCYKIaioqECr1eLl5eXor0fmUhAyLoHFYhErVqwQp/LyRGVVtcg5flwUFheLzKws8fbbb4t+/foJNze3BleQUKlUIj4+Xjz33HPiwIEDwmw2NzreyZMnxV133SWUSqUARFhYmPhi8WJhs9vP+vnV1dXivvvuE7fccouYOnWqGDFihMjMzDynvSaLVXy9fLloFxUl2XTDDTeI9KNHhdFsEWarVQghhN1uF9nZ2eL9998XAwddI3TuHtLrAdGuXTvx8MMPi99//10YDIZGn7Flyxbx888/O/qrkblE5JmQk1FUVERycjIKhYLExEQpC95ms5G0Zw/VZSUc/upjNLnpGDz9WFtoIOlIJnZ7fa8unU5HYmIit99+O6NGjSI6OvqcS6qioiJmz57NkiVLsFqtBAYG8p///If777//jDrVO3bsYMaMGXz++edEREQwceJERo4cydSpU884rs1mY8WKFcycOZNTp06hUCgYO3Ysb731FlFRUecce2lpKZs3b2bZn7O50tJS6W+BgYEMHjyY22+/g85dumCorqTOZCY0LIwOsbGYTCYOHz5MTU0NUB9P5O7uTufOnWUHtpMjBys6EUVFRTz11FOYzWYsFgteXl688847BAUFYTabqa6qYv87cxmWm0yABkwVUFMByXbQ+fhw9cCB3HnnnQwbNoxWrVr94+eFhoYyf/58tFotn332GWVlZTz77LOYTCYeeuihRrlbOTk5BAcHEx4ejoeHB1FRUeTm5iKEaCRyVquVL7/8ktmzZ1NYWIhSqeS2227jjTfeoE2bNn9rT1BQELfeeivXX389e/fuZeXKlaxbt46cnBzKyspYtWoVW375mbujA+hMLXoPf3xvnkz4I09iMZv58ssvycnJQalUkp+fj1qtZvny5bIIOTuOnorJ/D+bNm0SAwcOFLm5ueLo0aOib9++YteuXUIIIQoLi8S9d94uvmqvErldENldEMe7ILbEIu64uo/4/ocfRWVl5UV9bnl5uXjiiSeEVqsVgPD29havvPKKqK2tlV7z+eefi9tuu03U1dUJIYSYNWuW+Pe//y3spy3fTCaT+PDDD0VQUJC0JJw8ebLIz8+/KLssFos4fPiwePnll0ViYqJw0+nE5ABEaifE8c6IrE6ITzt6inXfLhc2m03o9XpRWVkpTp48KSZOnCjeeecdYbFYHP21yvwD8kzIiYiMjMTNzY13330Xk8mEr6+vNHvw8/PluhtuwLL/exA2aS/baoeR113PmFE3XvTn+vv7M3fuXLRaLe+99x56vZ6XX34Zs9nM9OnT8fLyIiQkhIqKCgwGAzqdjuLi4kYJtCaTiUWLFvHiiy9SWVmJWq1mypQpzJs376yJqOeDWq2mc+fOdO7cmXsmTeKz998jesWbeKnsWAGVCjqZDBzctxNxy22Sg3rNmjVYLBbuueceOdPeBZDjhJyI2tpaLBYLJSUllJeXY7FYpIDBnJwcCsoqye98NTlGsFihzATJgZF0vnbkJX+2r68vzz//PDNmzMDDwwODwcD8+fN5+eWXqa6upnv37tjtdhYtWsTnn39OVlYWV199NVDfuvmdd97hhRdeoLKyEq1Wy0MPPcSrr7560QL0VyLCwxl5w41Y3D0Rol6DlUCdAI2XrxRfVFxczKpVq7jrrrvw9/d3wLcoc6HIcUJOxNdff01JSQmLFy9m1KhR/Pjjj6hUKnr37o0QgpCQEDoOGcmOajNpdi3HO/Sh1xMv0GfgoCbpNabVaunbty8ajYY9e/ZgMBik/w4dOpTY2Fg2btxIZmYm99xzD9deey21tbUsWLCAV199Vapz9NhjjzF37twmFwEPHx92pWdhyUrFU0CRGZIiOjP48dm0ahUGwNq1azl8+DBPPvmk3CLIRZDnqk5EUFAQJSUlHDx4ECEENTU1koPZbrcjhKBTl65EvfEh+j8veG/PpnW6enh4MH36dHQ6HfPmzaOqqor333+furo65s2bx2effYbdbsfd3R29Xs+rr77KO++8Q11dHe7u7jz55JPMmjWrWQIIA/z9Gf/C6/waG0/OkQMI30BM/q1oE9kOqHeKb9q0if79+zeqyCjj5DjaKSXz/5SWlopnnnlGjBo1SowaNUrMnTtXVFVVCSGEyMzMFOvWrbtstphMJvH++++LgICARk7mEydPCUOdURSXlIqnnnpK6HQ6AQhPT0/x4osvipqamma3zWYXoqbOKPQGg1ixcqUoKysTQtTHMj311FNi27Ztl+08yVw6cpyQk2GxWCguLkahUBASEiI5Vuvq6qipqSEoKOiyNQC0WCwsXryY2bNnU1JSgkal4u4h/Uhs04ojZXo+W/87JrMZHx8fZs+ezeOPP467u/tlO1dWq5W8vDyppIfdbsdkMqHVauX+ZC6ELEIuQlZWFjt37mTChAmXtde81Wrl62++4ZlZs+hlyOeJIAhWQ74F3iyBZG0Ac+a8wNSpUy97udXKykqWLl3KpEmT5NQNF0YWIRehpqaGiooKqUrh5cRms/H2i88TtfRVenvUl+hQAdsMcPyOmTw996UzIqwvBxaLhYKCAsLDw+WZjwsjb9G7CEqlkoMHDzqkdIVKpSI8JBhf1Z8JXX/WI/JTQVx0lEMECOqTdo8ePSr3p3dxZBFyEZRKJVarFZvN5pDPj+rekyMeIZj+rFVUZ4EM33CiuyU69LxotVpZhFwceTnmIgghKCgowMvLyyHbzyazmbVL/sfJxe/hV1VMeUAYsfc/zQ13TLjogviXSkFBAVqt9pxF3mRcA1mEXIjVq1cTERFBnz59HPL5NrudE7m5lBYXE9yqFW3btLmsTvK/8u233xIdHU1iomNnYzKXhixCLkR5eTkKhQI/P78rfgkihKCkpARvb+/LGhYg0/TIPiEXwmq1snHjRiwWi6NNcTglJSVs3LhR3hVrAcgi5EJ4eHjQqlWrK34WBKDRaIiNjZVFqAUgi5AL4eXlRXh4OHl5eY42xaEIITh+/Djt2rWTRagFIIuQi1FcXExWVpajzXAodrudzMxMTCaTo02RaQJkx7SL0ZBbFhQUdF5pEnq9noMHD9K7d2+0Wi12u53Dhw9z+PBhIiIi6Nu3r3QcARhNZlQqFVr1pc0w6sxmlAoFumZo01xdXU1tbS2hoaHy0rQFIJfycDHUajW///47CQkJJCQknPN1NpuNnJwcli1bxpYtW1i5ciVarZYdO3bw7LPPEh0dTXZ2NhMmTOBf//oXxSUlbPx6MWUHdqPyC6TnLXfR9+pBKC/wIq+urmbDt8s4te03FDod8TfcyqCR16PVaEhPT2f79u24u7szdOjQ86qDfTa2bt2Kp6fnRb9fxrmQZ0IuSFFREUql8m8z6huqHX733XdoNBp++uknvLy8mDZtGu7u7sybN4/Vq1ezePFi/vvpZ6x9ax5hP/yXWKWNGjtsD2iHbfQUPP3OvzCZAEpT9xP7+9d0FUasAna5BdH+xUW07diZJ594gujoaCoqKvDy8mLBggX4nqO54bmw2WwUFhbi4+MjNz1sIcgzIRckMDCQ1atXM2DAAMLDw8/6Gjc3N6ZNm0bXrl1ZuHAhUF8+9vjx49x7773odDq6deuG0Whk947t6LZ8T6LWhlCCDzCg8jj3vzKHNOOFzYSmBAgmtapvAa0ABppK2brma/Z17ENISAjvvPMOhYWF3HPPPaSkpDBo0KALOv7+/fspLy9nxIgRjv4aZJoIWYRcEJVKRXR09N/uDCkUCjw8PPD09JRmSzabDbvdLrXA0Wg0KJVKqiorcLcYUSjATv2MxkMFbqJ+J+pC8FWC6rTjuCmBmipM5nonst1ux2w2U1lZSUFBwQWP3c/Pj4CAAEd/BTJNiCxCLohCoaBHjx5s3rwZlUr1t8XkTxcRNzc3vLy8KC4uBqCqqgq1Wk1CYk82R3SkLHMngVqwCThs0zHk7ru4JbL9edtls9up2f4Lp7K3E64FBKRbFHgkDuC2m8Yxe9YsHn74YfR6PUVFRRfcCePIkSPo9Xr69u3r6K9ApgmRRchFUSgUWCwWqqur/1GEbDYbQgh0Oh29evXi22+/JSYmhhUrVtC+fXu6JSRgnjGP3xbMxe9EKnVu3rjfOIHnps3E7wJ9NodSRvPL/OfxPrIbq0qDfdiN3DJ5Kmq1mqeeeoqamhrMZjNlZWWEhYVd0LFramoue+E0meZHdky7MHa7ndTUVEJCQggNDT3raw4ePMjq1auZMWMGnp6e5Ofn89prr3Hs2DFCQ0N5+umniY+PB6CwqIi8Eyfw9PYmKjoa3UXWCSqrqOBETjYajZZ27dvj5eHBunXr+PTTT5k1axbbtm0jKSmJjz766Lw6cgghSE9PR6vV0r79+c/MZFwDWYRcGCEEv/32G56envTr1++sr7Hb7dhsNtRqteQbavDJXM7kz4qKCt5//33S0tLw8vJi6tSp9OzZ87zfv3btWmJiYiTBlGk5yCLk4litVgoLC7FarURGRjp18J7dbqe6uho3N7fz7glms9lIT08nLCwMf39/px6fzMUhp224OGq1Gr1ez5YtWy54J+tyo1Qq8fPzu6CmhLW1tSQlJQHIAtRCkWdCLYCGGUZhYSFRUVEtxnnbsI3frl07uWZQC0aeCbUAlEol7u7uJCUlUVRU5GhzmoyjR4+SnZ0tt3Nu4cgzoRaE0WgkLy8Pm81GbGysyy5fbDYbycnJhIeHN2oAKdMykWdCLQg3NzesVisHDhzAbrc72pyLxmAwkJGRgU6nkwXoCkCeCbUwhBCYTCZ27NhBbGwsbdq0cbRJF8SePXtQKpV0795dLlh2hXDJMyGTyUR5efkZBab0ej0Gg8HR47viUCgU6HQ6PD09qaysxGg0Ov2uGdQ71xuiqQMDA2UBuoK4pJnQwYMHee+99ygrKyM4OJhHHnmELl26sHz5ctasWYNKpWL8+PGMGTNG/lE5AIPBwDfffMPIkSOdfka0Z88ejh07xvjx4x3aRkjm8nPRImQymXjwwQfRarVMmjSJJUuWYDKZmDp1Kk899RRTp07FZDLx1Vdf8emnnxIXF+fosV5x2O12cnNz0Wg0VFZWEhcX57CWzeeiurqa7OxsgoKC0Gg0hISEuKxDvSWj1+tRqVRSBQar1UpxcbGUQH0pN46LfqfFYiEqKorHH3+c/v37079/f4qKivjtt99o164dEyZMYMKECXh7e5OSkuLoc3hFolQqiYqKwtfXl3379lFUVOSQXvZnw263U1tbS05ODtnZ2YSFhcnlWp0Qu91OWVkZc+fO5Y8//gDqBenVV1/lgQce4L777uPTTz+9pDZUFy1Cnp6ePPPMM7Rv355169bx+eefM3LkSGpqaggODkalUqHT6QgICKC8vNzR5/KKxtvbmwkTJqDT6fjyyy8pLCx0tEmkpqaycuVKYmNjuemmm+TlupOSlJTEAw88wOLFi6murgZg8+bN/Pbbbzz77LM8/PDDLF26lCNHjlz0Z1y0CCkUCkpKSnj22WdZuHAhkydP5l//+hdubm7S9rAQAqvVKgebOQFqtZrAwECpIuGaNWscEtiYnp7OunXrCA0N5frrr8fd3V32ATkxkZGRPPjggyQkJEgbHDk5OcTExNCvXz+uueYaNBoNqampF/0ZFx2EYTabef311ykvL+e9994jOjoahUJBXFwcu3btoqysDIPBQElJCdHR0Rd0bLvdftYf5rmedyUsFgsmk6lRxcOqqioMBgN+fn7Smrs5UKlUREZGYrFYCAkJoa6ujq1btxIZGUnbtm2bddwpKSmYzWa8vb2JjIwkODi42ZdetbW1KBSKRikfNTU1aLVap/ONXSxWq1VqDx4QENBoRmkwGFCpVJc0CQgLCyMwMJD//ve/kgh16tSJlStXsmLFCkpKSkhNTb2kZf5Fi1BRURHbt2/Hz8+Pl19+GZvNRseOHbnrrrtYtmwZjz76KGazmfbt29O9e/fzOmZ5eTnLli0jPT2dVq1aceeddxIVFUVKSgorVqzAYDDQu3dvbr755ma9WJsDIQQWi4Vvv/2W3NxcZsyYgUqlYtOmTXz44YeYzWb8/f15+umn/7aLRlOg0Wjo378/drudU6dOUVVVRUpKCkajkV69egFc8vLIZrNhtVrZvHkzUVFRGAwGfH196dix42U51waDgQULFtC1a1duueUW7HY7paWlvPzyy0ycOJHevXs3ux3NTU1NDe+++y7bt29HpVIxYMAAHn30USk84/XXX2fo0KEMGzbskj6noSheA/3792fy5Mls3LgRNzc3qcLBxXLRIhQQEMCCBQuora1FCIEQgoCAANq2bcs777zD77//jk6nY9iwYefVFcFut/Ppp5+yfv167rjjDjZt2kRmZiYvvPACs2fPpl27dsTHx7Nw4UKUSiV33HGHSzkxy8rKeOONN1ixYgWDBw9GoVCg1+t599136dWrFzfffDNvv/02ixYtYuHChZclUlipVDJw4EAAsrKyqK2t5eTJk/zxxx+MHj1aEg5vb2+EEGcVJiEEdrsdhUJBaWkpVqsVk8nEtm3bGDlyJDqdDl9fX2JjYy/buT506BDz589nw4YNvPzyywBs2rSJd999l507dzJ27NjLZktzsn37dn788UfmzZuH3W5n9uzZ9O7dG29vb15//XX++OMPEhMTm+SzGq5xqJ/VlpaW8vrrr3Ps2DEyMjIu6eZy0b90T0/Pc3ZKiIqKIioq6oKO19DU7/HHH+emm26iffv2PP/882RkZNCqVSuef/55WrVqRVpaGvv27eOOO+5okpN7uXB3d+eGG26gqqoKq9UK1N9hrrnmGm6//XYiIiLo0KEDycnJUhGyy0lMTAwxMTEYjUb69euHRqNh165dtGvXDp1OR3p6OsOHD2fHjh10796d8vJySkpK6NatG2vXrmXYsGGkpqai1WpJTExkwIABBAYGcs0111z2cx0SEsJdd90l1dIGiI6O5p577qG4uNglgjfPBzc3N+6//36GDh1KaWkpnp6eVFRU0LFjRyZOnNhkGxAKhQIfHx9pWefv788ff/xBRkYGxcXFDBs2jJiYmIv/AOEk2Gw2UVJSIoxGo8jJyRH33nuvuPfee0V5ebkoLS0VJpNJbNiwQfTv318sW7ZM2O12R5t8USxcuFDcd999wmKxCLvdLmw2m6ioqBCffPKJ6N+/v1i+fLnTjM1qtQqr1SoqKytFTk6OMBgMYt++faKkpEQcP35cHDp0SNTW1ors7GxRW1srLBaLsNlsjjZbCCGE3W4XkyZNEh999JH0XFVVlbjuuuvEr7/+6mjzmgSbzSZsNptITU0VDzzwgBg7dqw4ceKEEEIIo9Eobr75ZrF8+fILP3dn+Zzs7GxRXl5e/3e7XWRnZ4u1a9eKrVu3itra2ksaR5Pebu1CUFhYRHFhASGtwggLa8X5LpiUSiU+Pj589913fPHFF7Rv357p06fj7+9PQUEBL774Irt372bSpEmMGTPGpZZijc7RaYmlCoWCtLQ0XnvtNerq6njhhRe49tprnWZsDcsvX19fqUlhw/Q+KChIet2FznovB3/1Y5zrOVfGZrOxbNkylixZQu/evZk9e7YUGX+hYxVCkJmRQdKGdRirq4ju2Zd+g6/F3c1NijdrQKFQXNRq51w0mQiZLRZ+Wv41x5YsxK34JLVhUXR7cCbXjhqL+jycnEIIli5dyjfffMO0adMYMWIEGo2GiooKZs+ejU6n48MPP2wxkdcNPqGXXnqJ0NBQnnrqKYKDg7FarahUKqcRIldGnObH+OvzLYFt27axaNEinn76aYYOHYpGo8FqtUpL+XON/2wcPpjC+pkP0Dl7D55A+jd+FE59jnEPPo5Wo2nWcTSZCB3Yk0TuW7O4obYQdzXUZBfzy6tPE9Yumq7duv/j+/V6PV9//TVarZZDhw5x4MABQkNDCQkJYfPmzYwdO5bVq1djs9m46qqrnGrGcCFotVrc3NxQKBTk5+eTmppKUVERjz/+OHa7nb59+zJjxowWs4XsSNzd3Rudx4aGkC2lPEhSUhLFxcUsXryYxYsXo1KpePLJJ7n66qsB8PDwQHMeAmK12di+bDG9j+0h2r2+cWW4rZK1X3/I8ZGjm/3G3yTfhgCy9u6ki74QDzewAd5aiC07Tsb+veclQiqVigkTJlBUVIQQAqVSiUKhoHXr1jzyyCNSWHjD867K2LFjGTZsmDS2Tz/9tFGme1BQkBw93ASoVCqefvrpRjuzXl5ezJs3j9atWzvavCZh/PjxDBgwAJvNBtRfGx06dABAp9MxZ86cRsvmc2G2WLEWnSJIXX/tCgEaJfgbKqgoK2v2cTTZLUHj5o5RoUCBQEF9H3K9RbBn+06uHz8BD4+/rxHs6enJ5MmTz/q3htiVlsDpDf+8vb3p06ePo01qkSgUikZhAXbqo8ZbUsugv/PLqFSq8942VymV5KMj2ww9NCAUUGuD8tC2hIVHNPs4mkSEFEDXQdey7Is4AkqPEqiBXDMsrYBty1eS0G8AkydPdvlo56akpLSULT9+T+mxo/i3jWLgjWNbzB3amSgrL2fLuu8pyUzDJzySgaNuIiI83NFmORV//L6JL9Zv4o8qmBQEfir4oxo0/brTKqxVs39+082EtDpWVylZdQISWvnh0zGBzXlJ1Nbpefnll+nYsSP9+/c/7+PVmc0Iu8DdTXfeO2yuQnlFJV+/MIPQDUvpioUCVHy9ZQPjXnr7b1s6y1wY+poalr/8HMHrl9AFM0VCxfKtG7jz9UWy4P9JdnY2c+fOpaCggEKlkoC4wRxNPUxWWTHxu/Zw6uTJC067ulCaxickBD+sXcuRoxnYbNBt0Bhmv/oKhmee4csvvyQ7O5s5c+bwxRdfEBHx99M7o8nE7+vWkvnzdwiLiYhBIxl+2534nEfUtatwYNd2/DatoJ/OglBABDZsu35gyvhchKdvi9m9cSQKhQK7sZaJpQcYoDNL51kkrWPH+h+5dcoDLermJoATubkcPZiCSq2mc2JPWp2jNXgDNTU1vPbaa+zevRuAgQMG8MZ7H/DSvJfI+vprMjIy+OWXX3jwwQeb1w/bFEFTBQUFom/fvgIQvr6+4pdffhFCCHH06FHRu3dvAQilUikee+wxYTAYzh18ZbeLH5YtFR908RfJcYiDcYgv4tzEF2++Ikxmc1OY6hR8+9nH4uc4pTjeBXGsM+J4F8SmWESoAvHn70l+NMHDE8SaaETun+c5pwvi9xjEp/Oed/RPoEmx2+1i19bN4vWRvcXSOJ1Y0sFdvHHbCJGWmnrO99hsNvHRRx8JDw8PAYjWrVtLQZyrVq2Snh86dKgUpNhcNMlM6JdffuHAgQMAXHPNNVJf9Li4OF588UWmTJlCYWEhn3/+OQkJCUyZMuWs/iG9wUDG6i8Zbq7AW1v/SxpgM/LDD0spvP1u2kY0v5OsuamurmbrvgME1Qg6BoBaUT/ODLsG/7atcJMboDQZagTpFJMgjKj/vJGnGiEjNx+DwYCnp6ejTWwSKqur2frBfAYf20OoGyAgO3kDGz95h3bz38dNd2a4x+7du5k/fz61tbW4ubkxffp0Bg8eDMDVV19Njx492L59O0lJSezYsYMbb7yx2ey/ZBGqrKzk66+/xmQy4e7uzl133dVoW3T48OFMnz6d5557jpqaGl5++WU6derEgAEDzjiW1WLFXlOFVll/YQKoFKA2GrCYzc12Ei4XlZWVvPTSS3z0v88JsAjqbNDVA7JMChgzkTVPzkInxwc1GTabnR8//5j/fbGAzlobx4zweRkUfL2MgPA2zJgxw+WqMZyN8rJy3HKPEqQFK6BQQJgGDmQcpMZQg5suoNHrCwoKmDt3Ljk5OQDceuut3HfffVJoSFBQELfeeis7d+5Er9ezatUqhg0b1nydfS91KvX9998LLy8vAYirr75aFBcXn/GayspKcffdd0vT5CFDhkg5LqdjsljEJy/MEj/G1C9Vcrsg/miPeOu+O0SVXt+sU8LmpqSkRDzyyCNCq9UKQHj7+Ige3RKEj1ohNEqFeOuddxxtYotkyZdfCZ1GLbxViNjodsLN3V0AwsPDQ8ybN++S856cgYKiIvHGyD7iSIf6JefxLoh9sYgFE8cK/V/cH0ajUcycOVOoVCoBiB49eoi0tLQzjpmWlibat28vABERESH279/fbPZfkggZDAYxfvx4AQiNRiM++OCDcyZfZmRkNPIPPfroo2f1D504cUI8dv014t+hiLmtFeI/t44UqYcONdsJuBwUFhaKKVOmCLVaLfnNFixYIJYuXSp0bm4CEA899JCwWq2ONrVFYbfbxfPPP1//m1OpxDvvvCueffZZodPpBCC8vLzEq6++Kurq6hxt6iVhtdrE6sWfife6BIrtcYjNsYg3erUVm35e1+h6tNvtYvny5cLPz08AIjAwUHz33XdnPabFYhGPPPKIAIRCoRAvvvhisyUnX5IIbd68WQQFBQlAdOvWTeTm5v7t63/++WfRqlWreqehp6f46KOPzhiYzWYT90yaXP8j8fQUP6//pVkGfrnIy8sTEydOlO48AQEBYuHChcJkMomUlBTpfFx77bWiurra0ea2KIxGo7jlllsEIPz8/MTWrVuFXq8XM2bMkITI29tbvP7668JoNDra3Esbq8kk5syaKdprEVE6xGvzXhJWa+Nr6+DBg6JLly4CEGq1WsyZM0eYTKZzHnPTpk0iICBAACIxMVHk5eU1i+0XLUJms1k8+OCD0szmpZde+keltFgs4s033xRuf979IyMjxZYtWxq9xmAwiFGjRglAhISEiOTk5GYZ+OUgNzdXjB8/XiiVSgGI4OBg8cknnwjznzt9hYWFonv37gIQHTp0EMePH3e0yS2KwsJC0aNHDwGI2NhY6fxWVVWJp556Sloa+/j4iLfeeutvL0hX4IMPPxSgEIB4++23G/2tvLxcWrUAYvTo0Wd1nZxOdXW1dC3qdDqxZMmSZrH7okUoOTlZtGnTRgAiOjpapP7NduDpVFZWinvuuUc6Gddcc02jGVR5ebno16+fAET79u1FVlZWswy8ucnOzhZjx44VCkX9j6JVq1Zi8eLFwmKxSK+pra0Vo0ePlmZIO3fudLTZLYq/m2lWVFSIadOmCY1GIy2R3333XZcWos8++0y64b3yyivS8xaLRbz22muS6MbFxYm9e/ee1zEXL14svW/06NFC3wy+2YsSIavVKmbPni1dYE8++WSji+ufyMjIEH369JFmUQ899JCoqakRQghx6tQp0bFjR8lp9k9q7YxkZGSI66+/XhLaiIgI8c0335zh87Hb7WL69OmST+2rr75ytOktiu+++06adU+dOvWM819RUSEeffRRSYj8/f3FBx98IM1UXY2lS5dKy/45c+ZIz69fv14SY29vb7F48eLzLpx36tQpaTbp7+8vfv/99ya3+6KCUnJycli9ejVCCFq1asX48eMvqDxCbGwsL774ImFhYdjtdpYsWcKXX36J3W6nsrKSmpoaoL6O9emdElyBI0eO8NBDD/Hzzz8D0K5dO9577z3Gjx9/Rna8QqGgY8eOKJVKLBYLmZmZcrR0EyGEICMjA6PRiEKhID4+/ozz7+fnx4svvsj999+PWq2moqKC559/ns8//1wqwetKuP1ZgAyQul80pGUUFhaiVCqZMmUKt91223lHQIeFhTF27FgUCgUVFRWsWrWq6c/NhaqW3W4Xb775pqS4kyZNuqjdhb/6h9q2bSu2bt0qtm/fLnnv77zzTpeaHh84cEAMGjRImgHFxsaKdevW/e1d59dffxXe3t4CEHfddZfL3oWdDavVKqZMmSJtx//000/nfG1paal44IEHpN3LoKAg8b///e+CZvfOwLp16ySH+7Rp00RNTY144IEHpBXL4MGDxcmTJy/4uMnJySI8PFxykaSnpzep3RcsQvn5+dJW++kpGhdDZWWlmDRpknSShgwZIt565x2h1blJJ9JZ6i3/E0lJSVLqCiA6d+4sNm7c+I/2p6eni8jISAGI/v37i7KyMkcPpUVQUVEhrrnmGmk5fPjw4b99fUlJibjvvvukm2tISIhYvHixS4VN/Prrr8LT01MA4l//+pdYtGiR9P9t2rQRf/zxx0Ud12g0ikmTJtVv1ytV4vU33xRNeVVesAh99tlnjRxVl7qtnJmZKV28/lqVuD42QnT0UAqNAjFv3rwmHGrzsW3bNmndDIju3buLrVu3ntd7y8rKRP/+/aXZYFPfZa5UMjMzRVRUlABE3759RUlJyT++p6ioSEyePFkSolatWomvvvrKZYRo69at0iqiW7du0s3N3d1dvPfee5c0jh9//FH4+fiINhrEuIQYsfSDd0RRE/lrL0iESsvKxOChQ+sH5uEhli1b1iRG/Lx+vegeHizej0Ds7YDY0QHxSAhi4VtvOv1M6Pfff5diLwDRp08fsXv37vN+v9lsFhMnTpSC5zZs2ODoIbUITl/m3nnnnee9zC0sLBQTJ06UdpnCwsLEsmXLnKaLyN+xZ88eERgc/OdvUSEFGt57772XvKu1b+8e8Wh8mPg1BrGvA+LbGLV477H7RGVV1SXbfd7e5KLiYpa/+yZBqdsZ4gXWmPb0+7OLZ8ND/NkI76//Pv3/bTab1J3TarVis9lQKpXcHubOdbWgUtYXSZvsB7syD2K22tBpmrYmcGFhISqV6ozaPfn5+RiNxvOqnyKEYOPGjUybNo309HQABgwYwMKFC+nRo8d526JWq6UavgaDgWPHjjF8+PAmHe+VSFZWFgaDAYCOHTue98ZJaGgo8+fPx2q1smLFCgoKCpg+fToqlYpbbrnFaQvz2ex2TmRl0kNtxMsPMoyCNCN0696dJ554AiEEFRUVWK1WzGYzRqMRk8mE0WiUHrW1tRgMBulRU1ODwWCgtraOktT93GMtJNatvkploNrKr5tWcnj/RAZcM/iSbD+vb6bOaOS7d14jfOV7vBxgw+oP28y5vDRzOnYPb8xmM1arFYvF8o//bRCh0x8mo5GH1cVo/P5MwAO8lJCXdoi09DS6denSJPVMzGYzp06d4qWXXmLIkCHcc8890t/Kysp47LHHiImJYf78+X97HCEE69at48knnyQrKwuAIUOG8N5779GlS5cLskmhUBATE4NGo2m0Q+bKdbQdjfhzZ8xut6PRaIiLi7ug89m6dWvefPNN7HY7K1euJC8vj6eeegqVSsXYsWPPS4gyMjIICQnBz88PqE8azczMxN3dnfj4+CbP4D98YD/ZC+cw30ePTwDkW+ClQjhhMPD8889jMBioq6ujrq4Oo9GI2Ww+42G1Ws+YODQQo4bH2tcLkF3UJ5b7WU3oK5qgBvX5TJeOZmSId/tGiux4RHaX+iS51E6Iq92brvbLSC/E/g6I453rH2ujEVHuKhHXoaOYPXu2SE5OvuSdsr1794qxY8eKgIAA8fHHH0vPm81mMX/+fNGmTRsxbdq0vz2GzWYTq1atktbbgBg5cuQl+XJ27twphcePGTOmRSRVOpLTo+4DAwMvaHl8OidPnhS33nqrtHESGRkpvv/++791EVRXV4stW7aIYcOGie3btwsh6pNBx44dK8aNGyeGDh0qZs+e3aT5aiWlZWL+U4+KjTH1yavZXRAnuiA+i0RoL/J6VCgUQqVSCa1WKzw8PESEv4/4pJ1C5MTXX59pHRAL+sWItCNHLtn+85oJmc1mhMmI4jQrVQrwdlfhqXJHrVKhOsdDrVaf8ZxGo0Gj0aDVaqV/e2pUrK3IoV1JDialhuV1NnLqquFoOq+88gpLlizhhhtu4M4776R3794XdSfp0KEDr7/+OrNnz27UhHDDhg0cPnyY22+//W9jIGw2GytWrGDmzJmcOnUKhULBqFGjePvtt2nfvv1F3what25NaGgo5eXl5OTkUFFR4XLxUc5EeXk52dnZQH2cS/hF1pSOiIjgrbfewmazsWbNGnJzc3niiSdQqVTccMMNZ51d/fLLL3zwwQekp6dLv7FffvmF4OBgFixYQFJSEs8//zwPPvig1KjwYikoKGD9+vV8tXQphft20C/k//8mAK0CfL09ETp3dDodOp0OrVaLTqfDw8MDLy8vPD098fT0lP7t5eWFl5cX3t7e0r/r2yRpSPv1R3765Ru8a6soCW5D7MPPEdME7YDOS4Rat26NsesAcnaspp2ufjq236ph2ENP8u+Ro9D8KTTq8/yvQqFAqVRK7Xsa/ltSWsqp7Cy0bu5E6muIWbWKn376iZMnT3Lq1Ck++eQTVq1axZAhQ7jzzjsZPHgwAQEB5zMEoL7lS2xsLD4+PtJUMzMzk//973888sgjHD58mKysLMlPdfqPzGq18uWXXzJ79mwp8GvcuHG88cYbtG3b9pK+hMDAQNq0aUNaWhpFRUUUFRXJNZAvgYKCAqkPfWRk5AX9Rv5K27Ztefvtt7HZbPzwww/k5OQwbdo0VCoVI0eOPEOIhg8fTlxcHI8++qgkQmPGjGHMmDEcOXKEn376iYiICHx8fC7KHiEEx48fZ+3atXzzzTfs378fs9mMGvhVB3f5g1YJpRY4GdmFz957hbCwMNzc3KSHTqdDrVY3eqhUqn9cZvYf0J+jt02kuryMq9pGEt2+Paqm8JGd75QpPS1NvPPABPFe33birYEdxX//82yzl300m81i37594plnnhEdO3aUdiz4Mwt/6NCh4r///e8FBWBZrVYxefJk8eGHHwohhPjggw9EfHy8ePTRR8WgQYNEQkKCWLlyZaMpt8lkEosWLZIqBqhUKnH33Xc3WVax1WqVkoF1Op1Ys2ZNs57Xls7y5culVIxp06Y1yc5Wdna2uPHGGxsFop5rJ7O0tFQMHTpUbN68WXrOYrGIt956S1x11VVizJgxoqCg4II+32q1iiNHjoiXXnpJdO3aVQojAISbm5sYNGiQ+M/TT4oFI3uLhb3bitdvGSa2bvrVsV/EeXJBW/TVNTUiMzNT5Bw/fllrPttsNpGRkSHefPNN0adPHylOiT9zrnr27Clee+01kZ6e/o8/OKvVKiZNmiQ++OADIYQQWVlZ4ueffxbr1q0TU6dOFaNGjRKHDx+WRMhoNIp3331X+Pv7SyUQ7r//flFUVNSkY3zrrbck38P8+fMv27ltibzwwgtSXuJHH33UZMfNysoS1113nfTb69Chg1SX+XRKSkokEbLb7eL3338XaWlpwmaziaysLNGvXz+xbt268/pMs9ks9u7dK2bMmCFiYmIa+W28vb3F9ddfL7766itRVFQkrDabyMsvEEePHhUllyHo1Wq1iqqqKmGz2YTNZhM1NTWiqqpKeuj1+vOKTWqSQveXk/z8fPG///1PjBgxQqroyJ+OtNjYWDFjxgyRlJR0zvowVqtVPPPMM+Kbb745429ff/21ePXVV6X/r62tFa+//rrw8fERgNBqteLRRx8VpaWlTT6un376Sbj/WfVvypQpLhMg52yYTCZxxx13SBdpUydcZmRkiOHDh0u/u06dOp3xGcXFxWLw4MHijz/+EHa7Xfz73/8WU6ZMEbm5ueLXX38V/fr1+8eKCbW1tWLz5s1i6tSpUspEwyMwMFDcfvvtYu3ataKysvKyn2O73S6sVqvYsmWLmD59uqiurhaVlZVi5syZ4pZbbhG33nqrGDNmjJgwYcI/1hgT4m9EKCMjQ6SkpEj/X1paKtasWSOWLFkiUlNTmyx4y2q1nnEss9n8j7sH5eXlYs2aNWL8+PHSMqnh0bp1a3HvvfeKjRs3nhHRbbfbRUVFhZS1fzoNSt7w75deekkSOp1OJ6ZPny4qKiqaZNx/5dChQ6J169ZS+kpVEwSBXYmUlpZKEfhRUVEiMzOzyT8jPT1dDP0zaBcQXbp0aVQXq6KiQjz00ENSLazDhw+L22+/XYwdO1Zcf/31YsGCBef8fVdVVYmffvpJ3HXXXSJYCjz8/9/1/fffLzZt2vS3XWuam9raWvHOO++I7t27i4EDB4qKigphMpnE7t27xcaNG8XGjRvFhAkTxIQJE85LJM8QIYPBILZv3y7Gjh0rlQMwGAziscceEzfddJO4//77xeDBg5uk5mzDUmffvn1CiHqB2Lx5s3jggQfExIkTxRdffPGP2/IGg0Fs3rxZPPTQQ1J9o4aHv7+/GDt2rFi2bNl5he03UF1dLZ577jmp7Ym7u7t45plnmrXyYVFRkUhMTJT8DdnZ2c32WS2Zw4cPi4iICAGIQYMGNdtN48iRI2Lw4MHSby0hIUHs2LFDCFHvPqiurm4UpV1ZWSmOHj0qTp48edZZbmlpqVi+fLkYPXq08PX1bfQ7jo6OFk899ZRISkr6x+uhurpanDx5UnInVFVViaysLJGZmSkyMzOb5OZmNpvF7t27xbx588Tw4cPP8A3v3btXjBo1Shw8ePC8jneGCGVkZIh7771XREZGimeffVYIUe+U69+/v9i+fbuoqakR1113nfj8888vaSB79+4VDz30kAgPD5cynHNycsSwYcOk+svDhg1rNBv7pxOzf/9+8eyzz4pOnTo1cmK7u7uLa665RixatOgfp4cN08qG7H4vLy/x4osvnnXm1JTU1dWJW2+9tVEpUpkLZ926ddKy9v7772/WZe3hw4cbVU1ITEy84JikvLw88emnn4ohQ4ZIN72GzY/OnTuLuXPnisOHD//jOKxWqygpKRGvvfaaeOqpp6TVxaeffioGDRokxo4dK26++eYmTQv67bffxPXXX99IhIxGo5g6dap47bXXznu1dMYWfVRUFAsXLuT555+XthiDg4OJi4tjwYIFhIeHU15eTrdu3S5pV06pVBIVFdUodWLXrl14eHjQt29fbDYbzzzzzD92bG1Ao9HQvXt3EhISmDx5Mj/88APLly/nwIED1NXVsXnzZrZv385HH33EuHHjuOWWW4iLi6O6pob8U6dwc3fHw8OD1159lY8//hiz2Yyvry/PPvssjz76aLPH7eh0OmJjYwHQ6/VkZ2czcODAZv3MlkhDDSGo73v31xpCTUnnzp15//33efjhh9m2bRvJyck8+uijLFq0iJ49e57zfUIIcnJypG32AwcOYP6zpZVWq6VHjx7ccccdjBkzhqioqPOK9i4uLmbevHn88MMPDBkyBAC73U56ejq33norY8aMQaVS4e/v32Tjt9lsZzy3f/9+MjMzmTFjxnmnuJwhQg1xAxqNRnquurqaiooKPD09cXNzAyAvL4/u3btfdHpBjx49iI2NZdu2bZLYHT9+nEOHDvHee+9RV1eHj48Pr7/++gUdV6lUEhMTw5NPPskdd9zBhg0b+Oabb9i+fTs1NTWkpKRw8OBBPv/8c64bMZyoihN4ZOzH4u5Fki6Eldv2YLFY8Pf358UXX+SBBx5ovn5Lp6FQKIiNjUWlUmGz2cjIyJDTNy4Qm83G0aNHEULg5uYm5eQ1J127duX999/noYceYufOnezZs4dHHnmEjz76iO7du5/VvpUrV/Ltt9+SlpYmXcgeHh5cddVVTJgwgeuvv56wsLALsiMgIIDp06fj7+9Pfn4+8P9pSnl5eeTm5hIfH8/48eObdPzitNQOIQTr16+nU6dOtGvX7ryPcV7BigcPHqSoqIjvvvuOVq1aMWvWLH7++edL7spos9kaDaKuro7WrVvzxhtvoFAomDJlClu2bOGOO+64qOOHhYUxadIkxo4dy9atW1m6dCmbNm2ipKSE7Oxs0r/8mHvCIVQDdhN46bNYbwNFUBAvz5vHlClTGolxcxMdHY2npyfV1dVkZWVhsVjQys0Qz5u6ujoyMzMB8Pf3v6AL4VLo1q0bH3zwAQ899BC7d+9m9+7dPPzIIzz1yMMEhwQTFdeJ4uIili1bxpo1azh27Jj0Xl9fXwYPHszEiRMZMmQIgYGBF2WDTqcjOjqaVq1akZ+fj0KhwGq14u3tTUBAADExMSxevJiqqiqeeOKJJknEVavVeHp6SjfKuro6srKyuP766y9oBnpOEbLb7dLBg4ODsVgsbNq0ibi4ODIyMpplqRAREUFQUBDBwcEoFAp8fX3POuW7UPz8/Bg9ejRDhw5l3759LFu2jHU//MAw+0nCtGCjvmtlPy8Y1DaIUXPeYNLdEy+oZG1T0KZNGwIDA6muriYnJwe9Xn/RP8orkZKSEk6cOAHU34AudDZxKfTo0UMSov179+CfugPD3L2YNVrW+kXy7YlKTpzKk14fHBzMyJEjmTBhAgMGDGjUtfhSaFhVCCHQaDTMnj2biIgI1Go1RqORzZs388gjjzTJ7L5Hjx689NJLeHl5AfUukWeeeeaC02TOeZV16dJFUsuuXbvy2GOPsWrVKoQQxMbGMmHChEteKigUCukB9Znoq1evZvbs2SiVSoxGo9TXvinw8PDg6quvpl+/fowePZr0mXdjt5XCn+VDDFYYNGIkEybcddkFCP4/fSMnJ4f8/HwKCwtlEboATp48KaVrtG/fHl9f38v6+T179uSNBW/xwQN3Mt1+ijCtGYSZtiWpbCqFE9TfaEaPHs2dd95Jr169JPdGUyHqN5tQKBTk5+czZ84cpk6dSocOHUhLS5MEqSnw8/OTqgRAvQh17tz5go9zTmsmTpwo/Vur1TJp0iRuuukmLBYLfn5+TTIQNzc3pk2bJq3d27dvz9tvv80vv/wCwH333UdUVFSTnLBGg1arGXTNNWQNv43k7z+mo9qO0Q47PEPpdtOdDusH7+XlRXR0NFu2bKG8vJyTJ09e1Jd6pZKdnS01SYiNjXXIUjYqOoqBoT4EF9fPsFFAmBauDvNh8M33c8/Eu+nSpXOzLfP9/f1p1aoVUD8b7NChAy+99BJ+fn7Y7XbmzJnTrM76i+GcSnI2Q5v6zqLVarn22mul/2/oPtGxY8dmH7iHuzvjZr7AhtZt2LBnKwovXzrfdCdXDxuJo1zBarVa2iGrq6uTMsFl/hkhBEePHsVms6FSqejQoYNDnPoe7u6YvAOoKwCvPy8hvQXaJvbl/hfm4ufTNMuuc3HLLbdgsViA+pv8zJkzGTduHHV1dZeczNtcXP41hxPRKjSUiU89g97wGBq1Bg+35t8F+ydiYmLQarWYzWapMJezVvNzJkwmE2lpaUD9zTImJsYhdgT4+dFpwoP89lomPQxFCCDZuzVdJz6Ir7dXs39+g3+mAa1We1lu6pfCFS1CAEoF+Ho1/4/jfGnwZZSUlHD06FHq6uqavApfS6SyspLjx48DEBIScsm1ei4WpVLJiFvHszs4hKNbfkOhUNBnyAh6D7haDrc4B1e8CDkbYWFhhIaGUlJSwsmTJ6msrJRF6DwoLCyksLAQqHf+NmVQ3oWi1Wi4euhwBlw7HBQgz2P/Hvn8OBl+fn5SlHhxcbF0Ycn8PceOHaOyshKor6Dp4eHhaJNQygJ0XsjnyMk4PdK3urpadk6fBw1OaZPJJLV8lv1oroP8TTkZSqWSjh07olAoMJlMcn/686AhzQXqY8Eupd63zOVHFiEnJCoqSlpOZGZmNknUeEtGr9dLqRABAQEOc0rLXByyCDkhpztWc3JypAA8mbNzerpGmzZtCA0NdbRJMheALEJOSGhoqNRt48SJE5SVNUGDuRbM8ePHKS8vB+rjrC62k4WMY5BFyAnx8fGR0lUa0jdkzs3pLZ87dOjgdGkJMn+PLEJOiEajOaPAmczZadgZE0Kg1WovuOWzjOORRcgJaShwplarsdvt8g7Z31BbWyvVEPL19W2WhGeZ5kUWISelocAZ1C83Gsp/yjSmrKyMnJwcoL5TsNy51vWQRchJCQ8Pl3Z5srOzpWhgmcac3vK5Xbt2Dk3XkLk4ZBFyUoKCgqT0jcLCQulCk2lMdnY21dXVQH0NoctRD1ymaZFFyEnx8PCQ/BsVFRWcOnXK0SY5HUIIUlNTsVqtqFQqOnXqJDulXRBZhJwUlUpFbGwsCoUCo9EopSXI/D8NNZegvo5Ow46ijGshi5AT07FjR3Q6HUII0tLSpCLmMvXo9XrJKR0UFHTBBdZlnANZhJyYyMhIqaRuTk4OtbW1jjbJqcjPz5d6bLVt21ZuCuCiyCLkxISGhhISEgLUd5KoqKhwtElORW5urpSu0aFDhzNKm8q4BrIIOTG+vr5ER0cDUFRURF5e3iUesWWRkZGByWQCmr/ls0zzIYuQE+Pu7i4VbG9oiChTz+ktn93d3WWntAsji5AT05C+oVQqsVqtZGVlyekbf2IwGKR0jYCAADldw4WRRcjJiY6OblTgzGq1Otokp6ChEQA0ji6XcT1kEXJyTt/1OXbsmFzg7E9OnjxJSUkJUC/Ucg0h10UWIScnODhYin/Jz8+X0zf+5NixY1INobi4uGZrqyzT/Mgi5OR4e3tL/o6ysjI5fQOw2+2kp6djs9nQaDQOa/ks0zTIIuTknN6f3mAwyDtkOE/LZ5mmQRYhJ0ehUBATEyMVOGvoT38lU1FRIRW2DwkJkWsIuTiyCLkADf3pAdLT06UAvSuVwsJCioqKgHrHvVxDyLWRRcgFaN26NcHBwUB9942qqipHm+RQMjMzpSJvHTt2xN3d3dEmyVwCsgi5AAEBAdIOWVFR0RW9QyaEICMjA7PZjFKppFOnTnLLZxdH/vZcgNPTEiorK6/o7htWq1Vu+dzCkEXIBTi9aqDRaJTSFa5EqqurpZbPQUFBcsvnFoAsQi5CdHQ0bm5uQH33jSt1h6y4uFhK12jbtq2crtECkEXIRWjbtq20Q5adnS1FC19p5ObmSnWV2rdvL7VFknFdZBFyEUJDQyXndG5u7hXbnz4zM1OqMCnXEGoZyCLkIvj5+REZGQlAaWnpFVngrCFdQwiBTqeT0zVaCLIIuQharbZRf/orMX3j9BpC/v7+cg2hFoIsQi5CQ4EzlUqF1Wq9InfIysvLyc3NBeoDOMPCwhxtkkwTIIuQC9G+fftGBc6utP70eXl5Ug2hdu3aSY56GddGFiEXIiIiQkrfOL398ZXCsWPH0Ov1gNzyuSUhi5ALcXqDv/z8fEpLSx1t0mXj9JbParWa+Ph42SndQpBFyIXw9PSUWgCVl5dfUQXOzGaz5Afz9vaWawi1IGQRciE0Go20Q1ZXV3dFOaerqqo4fvw4UD8jlGsItRxkEXIxOnXqhFqrxW63k/ZnzMyVQH5BASfz6ls+t4uKOmvL57Odiyvl/LgyakcbcCVSXV3N7t27qaiooFOnTnTu3FkqR2GxWNi+fTsxMTFEREQ0ep/FaqWuupLuniqsKshLT6WispKAFl7Uq7CwkA1fLybWWIqXFqIj2+LxZ7qGEIK9e/eyevVqjEYj/fv3Z8yYMVgsFlatWsXBgwcJCQnhtttuk5ayMs6FQsi3isuKyWTihRdeYM+ePURGRpKRkcGcOXMYMWIEAD/99BOPPvoo7733HqNGjZLeJ4Tgt59+JHXOQ/Qz5KFVwF6bO4r7Z3P9xPtQqZQt7q6vUCioMdTy/etziN70De3VNsossLV1V25btIyO8fGcOnWKyZMnk5CQQGRkJEuXLmXOnDnk5+ezfPlyxo8fzx9//IGnpycffPCBvKPmhMgzocvMqVOnSE5OZt68efTs2ZOZM2fy/fffM2LECLKysvjkk0+w2WxnCEqdycThbxczSJ9HoA4EcK2qjvc/ep13vlqBqoUW9hIWMw8Ys0j0sGEDfFVgzj/E7h9X06FTJwoLC4mKiuL555/H39+f/fv3k5ycjJeXF48//jhjxozB09OTb775BrPZLIuQEyKL0GUmMDCQF154gZ49e1JZWcmpU6fo2rUrBoOB999/n/79+wOcUarDYrVCVTnuSrBTL0JqBWgMeg7nHHL0sJoNNeBdnzKHEGBXgBdQV16KADp37sxrr72Gp6cnP/zwA+np6YwbN44RI0ag1+v5z3/+w8qVK7nlllukQE8Z50IWocuMn58f/fr149dff+Xjjz/G09OTyZMn8/XXX1NSUsLDDz/M1q1bqa2tlWJiADzd3fFM6Ev2wT/oqqmfJRVbIc+/NT3CW3BNHSFINRynj7USDzXYBWRqPGnT8yoUCgXu7u6UlJTw6quvcvDgQR5++GGGDRuG3W7Hzc2NAQMGUFFRwe7duykqKpJ31ZwQWYQuMxaLhU8++YS1a9dy1113ceutt6LT6di6dSsFBQXMmzePlJQUTCYTHTt2pEePHgCoVSpGTnmIpdmZHNy0Gh2CE63j+NdrH9KpS1dHD6vZsAvBrt828N0H8/A+mcEJI5iHDOc/192IgvoiZ7NmzSIkJISPP/6YqKgojEYjr7zyCiNGjGDYsGG0bduWSZMmUVpaKouQEyKL0GUmMzOTTz75hIkTJxIbG0tKSgrBwcHMnTsXvV6P0Wjk5MmTXH/99Wfs5rRt2xbvq67lqa+/Q9gET9w1lkHXDqWlxw2PuXMiah9/ptw9kZLKKkYbBeo/6wglJSWxfft2brnlFr788kvsdjvXXHMNNpuNV199lfHjx7Njxw4iIiLkUrBOiixCl5m6ujqio6NJSkoiKSkJIQTDhw9n6tSpANhsNq699lr69et3RoKmxWJh3549WGx2dG5u9O/Xr8ULEIBSoaBXr160jmxHSWUK6WlHKCoqIioqirZt2/Lggw9itVqB+nrcGo2GadOm8dVXX5GcnEybNm2YPn263J/MSZG36C8zNpsNs9ncaPdLrVaj0WhQKBQIIbBYLKhUqjOqBhYWFnLDDTewf/9+2rVrxy+//EJcXJyjh3RZMJvN3H333axYsQIvLy/WrFnD0KFD//F9NptNrr7o5LTMfV0nRqVS4e7ujoeHh/TQarVSMqZCoUCr1Z71wsnMzJSKmXXu3FlKZr0S0Gg0dOvWDagvbnbgwIHzep8sQM6PLEIughCCffv2Sd1Xe/fufUVtOSsUChITE/Hw8EAIwYEDB7BYLI42S6YJkEXIRbBYLJIPycPDg969e19xpSxiYmKkFj9paWmUl5c72iSZJkAWIRehqKiIgwcPAvXFzTp16uRoky47oaGhkg8sNzdXKvUq49rIIuQiHD16lBMnTgDQtWvXK7K+speXFwkJCQBUVFSQmprqaJNkmgBZhFyABn9QTU0NAL169boic6AUCgXdu3dHo9Fgs9k4cODAFduJtiUhi5ALYDQa2blzJ0IIfHx8rkh/UAPx8fFSLaFDhw5Jwizjusgi5AIUFhZy5MgRoD5qumPHjo42yWG0adNG6jeWlZV1RZW4banIIuQCpKamSh1XExISpI4bVyJ+fn507twZgJKSkiuqxG1LRRYhJ0cIwZ49e6itrUWpVHLVVVeh0WgcbZbDUKlUdOvWDaVSidFoJCUlpcUVc7vSkEXIyamtrWXv3r0A+Pr60qNHjyvWH9RAQkICPj4+AOzbtw+j0ehok2QuAVmEnJxTp05J/qCoqCip28aVTHR0tJSykpGRcUX1X2uJyCLk5Bw6dIiCggIAevTocdYuE1caQUFBdOjQAYCCggKysrIcbZLMJSCLkBNjt9vZs2cPJpMJlUpFnz59pEqLVzI6nY7ExESgvnNJQyS5jGsii5ATo9fr2bNnDwABAQF0797d0SY5BQqFgoSEBNzd3RFCkJKSItUTknE9ZBFyYk6ePMnRo0eB+uTN9u3bO9okpyE2NpaQkBCgPoShsrLS0SbJXCSyCDkxKSkplJSUANC9e3f8/PwcbZLTEB4eLvWjP378uJzM6sLIIuSk2Gw2du3ahcViQaPR0L9/f7lA12l4enpKyazl5eXSDqKM6yGLkJNSVVXF/v37gfrdoIYLTqYepVJJ9+7dUavVWK1WUlJS5GRWF0UWISclOztbSkno0KEDbdu2dbRJTkd8fDwBAQFA/dJVTmZ1TWQRclIOHDhAWVkZUF+6oyFCWOb/iYyMJDKyvj1rZmYmhYWFjjZJ5iKQRcgJsVqtJCUlYbPZ0Ol09O7dG2UL7TV/Kfj5+UkVJouLi+VkVhdF/mU7IeXl5ZI/KDQ0lK5dW26H1UtBo9GQmJiIQqGgrq6O5ORkOZnVBZFFyAnJysoiOzsbqPd7yJ1Dz023bt3w9vYG6v1CZrPZ0SbJXCCyCDkh+/fvl4Lvevbsiaenp6NNclqioqKkettHjx6V4qpkXAdZhJwMs9nMzp07sdvteHh40KdPnyu+dMffERISIlWaPHnypDSDlHEdZBFyMkpLS6WEzNatW9OlSxdHm+TUuLm5SZ1Z9Xo9hw8fdrRJMheILEJOxumtfeLj42nVqpWjTXJqFAoF3bp1Q6fTYbfbOXDgADabzdFmyVwAsgg5GXv37pVaPV911VW4u7s72iSnp2PHjlIy6+HDh+VkVhdDFiEnwmg0SqU7vLy86Nmzp+wPOg/Cw8OlCgM5OTmcPHnS0SbJXACyCDkRhYWFkj/oSm/tcyF4e3tLvrOysjLS09MdbZLMBSCLkBORlpYm9dHq2rUroaGhjjbJJWhIZlWpVFgsFrkzq4shi5CTIIRg7969GAwGFAoFffr0QavVOtosl6Fr1674+/sD9XFWtbW1jjZJ5jyRRchJqK2tlfxBvr6+sj/oAomMjJQiy48dO0ZRUZGjTZI5T2QRchIKCgpITU0FoF27dsTFxTnaJJfC39+f+Ph4oN63lpGR4WiTZM4TWYSchNTUVKm1T0JCAkFBQY42yaU4PZnVYDCQkpLiaJNkzhNZhJwAIQS7du2irq5ObvV8kSgUCrp06SLl2cnJrK6DLEJOQE1NDfv27QPqlxUNPbVkLoyYmBgpmTUtLU0qCifj3Mgi5AScOHFCim1p37490dHRjjbJJWnVqpXkSzt58iQ5OTmONknmPJBFyAk4dOiQtJuTmJgo1U2WuTDc3d2lZNbKyko5mdVFkEXIwdjtdpKSkjCbzahUKnr37i239rlIGpJZtVqtnMzqQsgi5GCqqqokf1BwcDA9evRwtEkuTadOnQgODgbqZ5jV1dWONknmH5BFyMEcP35cimmJjY2lXbt2jjbJpYmIiCAqKgqoT2bNz893tEky/4AsQg7m4MGDlJaWAvWlXH19fR1tkkvj4+ND586dgfoCcWlpaY42SeYfkEXIgTS0erZarWi1Wvr06SO39rlEVCoVPXv2RKVSYTKZ2Ldvn9yBw8mRf/EOpKKiguTkZKC+VrLc6rlp6Ny5s9Qs8vDhw9TV1TnaJJm/QRYhB3Ls2DGpMHtcXJzc2qeJaNeuHREREQBkZGTIyaxOjixCDmTfvn2Ul5cD9aVcvby8HG1SiyAoKEjyC+Xl5cmdWZ0cWYQchMViYc+ePdjtdtzc3ORWz02IVquVghZra2s5fPiw7BdyYuRfvYMoLS3lwIEDQH1rn4YyFDJNQ0JCAh4eHggh2L9/P1ar1dEmyZwDWYQcRGZmJsePHwfqW/s0+DBkmoa4uDipXdKRI0ekZa+M8yGLkIPYt2+f1Nqnd+/ecmufJub0ZNYTJ05Igi/jfMgi5ABMJhNJSUkIIfD09KR3795yKdcmxtPTk65duwL1oRBy0KLzIouQAyguLpZa+0RERNCpUydHm9TiUCgUdO/eHa1Wi81mIzk5We7A4aTIIuQAjh49KjXo69Kli9zquZno3LmzVBbl4MGD6PV6R5skcxbUjjbA1bBYLGzbto2kpCQCAwMZOXIkbdq0oaamhp9//pmsrCy6du3KsGHDcHNzO+P9NrudLdu2odfXgEJB37590el0jh5WiyQiIoLIyHYUFhaSeSyb4ydO0q1r49w8i8XC1q1b2bNnD0FBQYwcOZKIiAiOHDlCUlISUD+rGjhwoNTlVaZpkWdCF8jGjRt55plnKC8vZ8OGDcycOZOysjI+/PBDPvvsM0wmE6+99ho//fTTGe+tqqrmm/cWoF/9GXf4C7r4uhEfHy/7g5oJTy8vOrRrwxAvuM6cz9qXn2Ff0u5GMUO//PILs2fPpqKigp9//pl///vfVFVV8e2337J8+XIOHDjA/v375d21ZkSeCV0ADQ0KR40axXPPPUdqaiqTJk1i586d/Pbbb0ybNo2ePXvSs2dPqRFfAza7nR+XfAYfPs9DahOq1nDYZOLEto0Yhw3HTSc3OmxqUlMOkJCdxNMR4KmyUZT8I7++UELQR8uJjIxECMG+ffu46aabmDVrFgcPHuT+++8nOzubwsJCJk6cyNVXX01AQIAczd6MyCJ0gUyePBlPT09qa2vZuHEjvr6+mM1mioqK+Prrr/nvf/9LUFAQs2bNavS+an0NhZt+4AalCc2fhRO7aOyc2L6ewsInaRcZ6eihtSiEEBz6fSPdK3LxcQM7EK6D9jn7SU/eS+Sf5/vee+9t9H36+Pjg4eFBVlYWqamprFixgoCAAGbPnk1sbKyjh9UikZdjF4BCoaBt27bk5eXxxBNPsHHjRp577jkCAwOprKxkwIABvPjii1RXV/Ppp582mvYLBAg7py+8FADCLqcUNBMCgeJsz/55vhu+z5MnT/L444/z+++/8+yzzxIREcFtt93G888/z/z586mtreXTTz+Vd9eaCVmELpBdu3YxY8YMoqOj+d///seQIUPw9PQkLCyMkSNHkpCQQL9+/cjPz2/0o/Xx8iZk8A0k2zTY7PUClG5RorpqhLw71gwoFAo6DxrKAd8Iamz157vYBNltE+iQ2Et63Y4dO5g5cyZxcXHS92k2m+ncuTODBw+mY8eO9O/fn8LCQlmEmgl5OXYB2Gw2vvjiC4xGIyEhIfzyyy/odDoSExMJCwvjs88+Y9CgQWzatIkbbrihUUKqWqXkxkn/4nuzmY+XfEBZQSGHlJ68dt3NuJ9lF03m0uncrTtvtk5gwx+n6OClJnTAUIY9+Zy09LXZbCxevBiLxUJwcDDr16/H3d2dmJgYXnjhBUaPHk1cXBw///wzY8aMkRsQNBOquXPnznW0Ea6C1Wrl5MmTCCHIz8/n5MmTlJWVMWDAAPr168euXbvYs2cP/fr145577jlji97d3Z0uVw1gfXYBH23aRaHJzqBBV8vF7ZuJ0pIS3n7/Q3aeLKY4NIr/fLqE7j0Spd3Ihu/TbrdL32dFRQWDBw8mJiaGTZs2cfjwYQYOHHjW71OmaVAI2SFx3pzrVJ3+ozabzXh4ePztcVauXMndd9+NyWRi6tSpfPDBB/JdthnYvHkzY8eOpaqqilGjR7Ni+fJGOXr/9H2aTCbsdruc19fMyD6hC0ChUJz10YBarf5HAYL6rPmgoCCgvvxoQyKrTNOyb98+qeVPn969z5jJ/NP3qdPpZAG6DMgi5ADCw8OJiYkBIDs7mxMnTjjapBaH2WyWitx7eHjQs2dPOSjUSZFFyAH4+PhIfqDS0lK5XXEzUFJSwqFDh4D6onEdOnRwtEky50AWIQegVCpJTExErVZjsVjkDO9mIDMzU5phxsfH07p1a0ebJHMOZBFyEF26dCEwMBCAlJQUampqHG1Si2L//v2SP6hXr17yzpYTI4uQg2jbti3R0dFA/V27obSHzKXzV39QYmKi7A9yYmQRchB+fn5SR4ji4mK58l8TUlxcTEpKClC/CdCxY0dHmyTzN8gi5CBUKhU9evRAqVRiMpk4cOCAnEPWRBw7dkyaWXbq1En2Bzk5sgg5kG7dukmV//bs2YPBYHC0SS2C5ORkyR+UmJgo+4OcHFmEHEhUVJRUUiIzM5PCwkJHm+TymM3mRk0E+vTpI/uDnBxZhByIv7+/1K64qKhI9gs1ASUlJaSmpgIQFhYmxwe5ALIIORCNRiO1f66trSU5OVn2C10if40PksukOD+yCDmYhIQEfHx8ADhw4ABGo9HRJrk0p/uDevXqJed+uQCyCDmY9u3b06ZNGwDS0tIoKipytEkuixwf5JrIIuRggoODJb9QXl4eGRkZjjbJZflrvpjcVNI1kEXIwWg0GumOXVNTw4EDBxxtksuSkZFBbm4uUN/4UPYHuQayCDmYhnbFnp6eQH3Ok8lkcrRZLocQgpSUFKnLamJiouwPchFkEXIC4uLiiIiIAOqLnJWUlDjaJJfDYrGwe/duuX6QCyKLkBMQGhoq5TedPHmS7OxsR5vkcpSUlEh1mcLDw4mPj3e0STLniSxCToBOp6N79+4A6PV62S90EZxeiaBDhw6EhoY62iSZ80QWISdAoVDQu3dvPDw8sNvt7N27F4vF4mizXIpG9aT79JH9QS6ELEJOQlxcnLSbk5qaSnl5uaNNchnketKujSxCTkKrVq2kPKfc3FzZL3QBnO4PkutJux6yCDkJnp6eJCYmAlBRUcHBgwcdbZLLcHp8kFxP2vWQRchJUCgU9OjRA51Oh91uJzk5GZvN5mizXIL9+/dL8UE9e/aU6we5GLIIORGdOnUiJCQEgEOHDlFZWelok5we2R/k+sgi5EREREQQFxcH1DdFPH78uKNNcnqKi4ulpWt4eLicL+aCyCLkRHh5eUnF78vKyjhy5IijTXJ6/lpPOiwszNEmyVwgsgg5EQ1NETUaDVarlX379sl+oX/g9PgguZ60ayKLkJPRtWtXgoODgfoCXQ0OV5kzOb2etIeHh1xP2kWRRcjJaNOmDVFRUUC9XygvL8/RJjktJSUl0pJVjg9yXWQRcjJ8fHwkv9DpRbpkzkSuH9QykEXIyVCpVPTq1QuVSoXZbJaL358DIUSj+CC5nrTrIouQE9K5c2f8/f0BSElJoaamxtEmOR0Wi4W9e/dK/qAePXrI/iAXRRYhJyQqKkryC2VkZJCfn+9ok5yO4uJiaakqxwe5NrIIOSH+/v4kJCQAUFhYKDdFPAt/7S8mxwe5LrIIOSFqtZrExESUSiVGo5EDBw7IfqHTEEJw4MCBRvWk5fgg10UWISclISEBX19foD5eqK6uztEmOQ1/7Tcv54u5NrIIOSnt27cnMjISqG+KWFhY6GiTnIbS0tJG9YPketKujSxCTkpgYKB0cRUUFJCVleVok5yGjIwMKV+sY8eOcj1pF0cWISdFq9VKTRENBoO0HS3TOF+sb9++cnyQiyOLkBOTmJiIt7c3UO8XMpvNjjbJ4ZwewCn3m28ZyCLkxLRv314qVZqenk5xcbGjTXI4f40PkvPFXB9ZhJyYkJAQunTpAtQ3RczMzHS0SQ5Hjg9qecgi5MS4ublJxe/1ej0pKSmONsnhyPWkWx6yCDk53bt3x9PTEyEEycnJV3RTRJPJ1ChfTI4PahnIIuTkdOjQQVpyHD58mNLSUkeb5DBKSkoa1ZPu2LGjo02SaQJkEXJyWrVqJV1sV3pTxKysLLmedAtEFiEnx93dne7duwNQVVV1RRc527dvX6P6QbI/qGUgi5CTo1AopARNu93O3r17sVqtjjbrsmM2m9mzZ4+UL9arVy/ZH9RCkEXIBYiPj5dSEw4ePHhFNkU8vZ50WFiYHB/UgpBFyAVo3bo1MTExQL1fqKGu8pXE0aNHpXF36dLljHrSVqsVo9EopbbY7XZsNlujh5z24pyoHW2AzD/TUK7it99+o6ysjJSUFHr27Olosy4bf60n3bNnTylfTAjBvn37+Pzzz6mqqqJz587cd999bNiwgZ07d6JQKFAoFAghmDx5Mr169XL0cGT+gjwTcgGUSiU9e/ZEq9Vis9lITk7Gbrc72qzLhtlsPmc96YqKCl588UW0Wi3jxo1j06ZNfP7550RERJCQkEC3bt1QKBRs3rwZpVL+uTsj8kzoMpKbm8u3335LSUkJCQkJjBkzBjc3N3799Ve2bduGr68vN998s7T0Op1OnToRFBREfn4+Bw8epKqqSiqG39I5vfVReHh4o/pBNTU1REZG8vTTTxMeHk5ycjLp6enMnDmTwYMHYzAYeOKJJ3jsscekXUYZ50K+NVwmamtrmTt3Lrt37yY4OJhFixaxdOlStm/fziuvvIKPjw+pqak899xzVFVVnfH+Nm3aEBsbC9THyzTkT10JHM3M5PiJ+vig+Pj4Rv6g8PBw5s+fT2BgID/88AObNm1i6NCh0t+///57KioqGDdunDwTclLkmdBloqKiApPJxNy5c4mPj8doNLJ7927sdjtBQUE8/PDDbNu2jXnz5lFTUyOVdm3Ax8eHbt27s3nzZopKSjmUmio1SWyp2IXg8IH9bPz0A+Jseo6rIPE0fxDU92krKyvj7bffJi0tjalTpzJu3DgUCgWVlZV8++23jB8/noCAAEcPR+YcyCJ0mQgODuaNN94gNDSUlJQUtmzZwsiRIxkwYACffvopd999NydOnKB///5SL/rTMZnN+KsEo3zBR2nh4OqlZPftS3T79o4eWrORsm8vG6ffy/UFqdwRCfsMUFGWR21dHR5/ClFVVRVz5szBy8uLRYsWSa2SAPbu3Ut1dTWDBg1y9FBk/gZ5fnqZ0Gq1+Pj4sGjRIqZPn06/fv2499572bt3L35+fowZM4aRI0eSnp5+Rv95IQR//PQDYRuW8EY4vNQaRqT8xPevPkfVnxUGWxo2u53dq7+mb14q7XTgp4Kh3uC57Qcy0tOl12VmZrJlyxZKS0tZsGABDz/8MIsXL8Zut7Nr1y5iYmLk8q9OjjwTukwYjUZee+01MjMzeemll+jXrx8A27ZtY+DAgdx7772UlJQwbtw4jh8/3uiObrbayPjlewaaKnHTgQBidXBs329kZ2XSI7Hlbdfb7HasFWV4K8EOCAEqwMuoR19VKb0uPDycefPmYTKZpDighnM3bNgw3NzcUKlUjh6OzN8gi9Bl4tixY6xatYprr72WXbt2sX37duLj4+nRowerVq1i2bJlZGdno9VqadeuXaP31tYaKMzPR/mXLAWF3Y7d1jK36jUqFf6dE8na+DVXYQMFGOzwW5mJ8F9/o0ev3nh5eREWFsZdd9111mNcddVVjh6GzHkgi9Blwt3dnTvvvJO6ujqpfY9er+fuu+9GrVbz+++/4+7uzgsvvNBIhKqqqnhj/nwWb0kixBtuVIFaATkW+M5gplVRES1vHgQKoEbjzofFCm71gnAPDVuqbawsMSPeeotag4Fnn32WoKAgR5sqc6kIGafAbDYLq9Xa6LmioiLx8MMPC61WKwDRxttNvDgwXrzcs61I9FIKBYhRo0aJ8vJyR5vf5BQWFoqBAwcKQHi6u4k3XnlZzHrmGeHp5SUAoVarxT333CNOnjzpaFNlLhFZhJyU3NxccddddwmVSiUA4e3tLV78z39E9vHjYlfSHpHYs5cAhJubm/jss8+E3W53tMlNht1uFx999JEkvkOHDRPl5eWirq5OvP322yIwMFAAQqFQiFGjRom0tDRHmyxzCcgi5IQcPXpUjBo1SigUCgGIoKAgsXDhQlFXVye95vPPPxfu7u4CED179hTHjx93tNlNRl5enujbt68AhIeHh1i2bJn0N7PZLBYvXiwiIiIE9T56MXDgQJGUlORos2UuElmEnIzk5GRxzTXXSBdYeHi4WLJkibBYLI1eV1FRIcaMGSMAoVQqxZw5c85YzrkidrtdLFy4UGg0GgGIG264QVRUVDR6jc1mEz/88IPo2LGjdJ4SEhLExo0bW9SM8EpBFiEnYvPmzSIxMVG6sGJiYsSaNWuEzWY76+s3btwogoKCBCDatm0r9uzZ4+ghXDK5ubnSOfDy8hKrV68+52u3bt0qevfuLZ2vqKgosXz58hYhxlcSsgg5ATabTfz444+iQ4cO0gXVvXt3sWnTpr+9sxuNRvHII49I75k8ebIwGAyOHs4lnYcFCxYItVotADF27FhRVVX1t+9JSUkRw4cPl85BaGioWLRokTAajY4ejsx5IouQg7FYLOLrr78Wbdu2lS6kAQMGnPes5tChQyI2NlYAws/PT6xdu9bRQ7posrOzRUJCggCEr6+v+PHHH8/7fbfddptQKpXSe1966SWh1+sdPSSZ80AWIQdiNBrFhx9+KEJCQiQBuu6660Rqaup5H8Nms4nXX39dmj0MGzZMlJSUOHpoF4zNZhOvvPKKtBs4fvz4CxKRgoICMXXqVGlHzc3NTTzxxBOitLTU0UOT+QdkEXIQNTU14tVXXxW+vr6Sc/n2228XOTk5F3ysvLw8MWDAAAEIrVYr3n//fZdz0GZkZIj4+HgBCH9/f7Fhw4YLPkZlZaV47rnnhNdfYolOnDjh6OHJ/A2yCDmAiooKMWvWLOHh4SEAodFoxAMPPCAKCwsv+pjLli2TLr4uXbqIjIwMRw/zvLHZbGLu3LnScmrixImitrb2oo5VW1sr3nrrrUaxRDfeeKMcS+TEyCJ0mSksLGy0bHB3dxczZsy45Kjn6upqMX78eOnCmzFjprA4+S6RzW4XFVXVImnvPhEbGycAERwcLP74449LOm5DLFGbNm0a+dl2797t6CHLnAVZhC4jubm54o477pD8Hr6+vuLll19uMgfq1q1bRVhYmABEdHiYWPH1UlH+lxgbZ6G0rEwsees1seCWoWJa/y4iQFM/C/rXv/7VJDtbDTuOp8cSde3aVfzyyy8ut1Rt6cgidJlIS0sTN954oxQFHRwcLD744IMm3Uq2WK3ioXsnibv9Ef+LRHzS0Uu8ff+dTucTqTOZxCdznxHLYtTiSAfE4Y6IBeGIqEBfsWLlSlFZWSmMRmOTxPts3bpV9OnTRxKidu3aiWXLlp0R/CnjOBRCyM2Ympt9+/bx5JNPsnXrVqC+XvSrr77K7bffjlp9/oUMLBYLFosFk8lETU0NNTU16PV6ysvLKS0tJS8/H8PaL7i9PA1vFSDgoFFB8ZQ5TJo1B5WT1FjOOZ7L6gnDuakiE6WqPmPeZIcZxRoygtoTEhxMUFAQoaGhtGrVSvpvSEgIfn5++Pr64uXlhU6nQ6vV/mPt6EOHDvH000+zYcMGAEJCQpg7dy5TpkxBp9M5+nRc8cilPJoBQf2FBfDHH3/w5JNPcuDAAaC+a8aCBQu4/vrr618rBGazGbPZjMlkQq/XU1lZSVVVFeXl5ZSXl1NWVkZpaSklJSUUFxdTVlaGXq+XhMhkMmGxWLBZLMxrDd4BYAUUCminEmSmHcBoNuPpJL3bbTYraptFqo8kAJUChMnC0fR0jp5WORHqW2HrdDrc3Nzw8vLCx8cHf39/WrVqRVhYmCRQISEhBAUFERAQgL+/Px4eHuh0Orp27conn3zC7Nmz+fbbbykuLmbWrFmUlpYy5f77qSwvR6lS0TYyEs/T6lfLXB5kEWpCDLW17PhtI7n7duERGEyduzevv/EmGRkZAPj5+XHTTTdRVVXFe++9R0lJCaWlpZSVlUmC0yAuBoMBk8mE1Wo97x5jCiDfAjYBSkV97d4qO2iDw9BcwIyruWkVFgaJ13Bsw3GidfVVEw9aVSjjE0i0KCkvL6Ompoba2lqMRiN2ux2j0YjRaDxnC2ylUolarcbDwwMfHx98fX0JDAwkODiYkJAQWrduTZcuXdi/fz9paWlUV1fz2quvkvfr9ySaSrAKBbZ+I7llxvOEh0c0OrbVaqWqqgqdToeXl1fj79xgQKvVotFoHH1aXRZ5OdZEmMxmlr33JrbP5xNrrsagULCkWsOyIjMNJ1itVqPT6TAajdhstvM+tkKhkC4wT09PPD098fX1xc/PD39/fwIDAwkJCSE0NJSanKME//Q5cWY9dQIOhHdm8Ouf0quvc1UZPJaVxY9vzUN5YBt2lRq3waO57l+P4abTodfrqaiokGZ/hYWF5OfnU1hYSFlZGWVlZVRWVkqCfXpp17+jocxrw7lPcIc3W9eXyhVAqklB3h3TmfzCK+j+FJWioiIWLFhAdnY2KpWKu+++mxtuuAGFQkFpaSmvvPIKkydPbvGdT5oT57k9ujhZmZmUL/+IMaIalRsoETzgayapAo6Z619jtVqxWq3A/wuLRqPB3d1dEhc/Pz+CgoKkR2BgoPTw9/eXlhru7u7odDp0Oh0ajUbqSFpbV8fmfgNJ3bcLjZcPI64fQ5eE7o4+PWfQPiaG+xcsorCgAJVKTVjrMOnCP1theiGE1G/eaDRSXV0tzSSLi4spKiqS/ltYWEhpaSnV1dXo9Xpqa2vrl6t/Ef5+nhDrjnST6KARZO7bQlVVNSFBgQAsXbqU9PR0nn32WTZv3sz777/PwIED2bNnDx9++CHbt29n3Lhxjj6dLo0sQn/BaDSyc+dOsrKyaNu2LQMHDsTT05P8/Hx+//13DAYDiYmJ9OjRo1EB9YrSUnwMFaiV9cshoYBgFXQI8cM7OAr/v4hLUFAQwcHBBAYG4ufnh4+PDz4+PpK4aLXaC3JaN+Dh7s71t9wGt9zm6FP5j3i6u9M+Ovq8XqtQKNBoNGg0Gry9vQkODqb9Wdodmc1mjEYjtbW1VFVVUVFRQVlZGYWFhRQWFlJUVERRURF5BQWoTqVgtVejUtYvZS0C7Dr3Ruc9NjaWPn36EBsby8GDByVHdtu2bbn55ps5ceLEec3CZM6NLEKnIYTgyy+/ZOnSpfTo0YOvvvqKm2++mUmTJvHvf/8bvV5PeHg4ixcvZt68eQwZMkR6b3jbtuwOiaS2MBVPDSDgmEXBmKmPcdMDj+Lh7i75Dpq7E6gQgsOHD7N161YUCgWDBw+mY8eO2Gw2tm3bxoEDB4iMjGT48OFn+DiaC7vdTnJyMlu3bkWj0TBkyBA6d+5MRUUFGzZsID8/n8TERAYMGHBR4tuAVquV2iud3qn19HNjNpupravju0/eZ8dnL9MdIwLYo/QicvSd+Pp4S68fPXo0BoOBl156iWXLljFq1Cjc3Nzo0KEDwcHBLFmyRBahS0Q1d+7cuY42wlmwWCx88cUX3H777Tz11FNUVVWRlJREbGws69ev59133+XOO+9kx44dlJWVce2110rv9fH1pcLDnz0pKej1ejIVHuQNvJmbnnyG1mFh6HQ61Gq1tGxqTtLT05k2bRoKhYLjx4+zevVqhg4dys6dO5kzZw4+Pj6sXbuWmpoa+vbte1lsOnToEI8//jharZa8vDy++eYb+vTpw0cffcSGDRvw8vJiyZIltG7dWmp33Rw0LIPd3dxon9CDXN/WpFhU5LTpRPi9TzFy/J3otFqgXjhPnTqFWq2mW7dudOrUiZUrV9K3b1/CwsKoqanh22+/ZfDgwURGRjb7OWyxODpQyZmw2WyioKBA5OXliQ8++EAMHDhQvPHGG6K8vFwcOnRI2Gw2ceTIETFkyBDx8ccfn/F+q9UmDh08KNatXCZ+/+VnUVpW5pBxrF27Vjz55JPCZDKJrKws0a9fP7F161Zx//33i7lz5wqbzSZWrVolhg4detky7hcvXiweeOABYTQaRUlJiRg8eLB45513xLBhw8T27duFEEK8+OKL4v7777/sgYQ1tXWi5rTSuQ2YzWbx2GOPiUWLFgm73S6OHj0q+vbtK3bs2CGEEKK4uFgMGTJEbNmy5bLa29KQl2OnoVAoaNWqFWVlZZhMJjQaDVlZWbi5udG+fXsWL14s3cHP5oxUqZR06dqVLl27OnQcQ4cO5ZprrmHDhg0sWbIEPz8/QkNDycvL48Ybb0SpVBIXF4fFYqGiouKytM0ZMWIEQ4YMQaVSsWXLFurq6mjbtq20/V5XV4derycvLw+TyXRJS7ILxdP97PFTarWafv368f7773PkyBFOnDhBt27diI+PB+p/Lx4eHnJzxUtEFqHTqK6u5uuvv2bUqFE8+eST9O7dm3//+9/k5uby5ZdfkpaWxsyZM6WLyVlx/zPgzt3dnVatWrF7924pVsntz4BFtVqNSqU67xikS6VVq1bk5uby7LPPsm/fPh599FGuu+46MjMzef3114mIiGDnzp3ExsY2u8/sfFEoFIwbN4527dqRkZHByJEj6devH76+vgD4+PjwyiuvyEuxS0QWodNQKpX89ttvZGdnM27cOH766Sdat24tdU+97777qKmp4fvvv6dDhw507tzZ0Safle+++w673c64ceMYNGgQt99+O2lpafj6+nLq1CkASkpKUCqV0gXV3GRnZzNjxgzatWvHRx99RExMDBaLhUGDBpGYmIharcbHxwe73e5UqRQajYZ+/fpJbbtPR6vVkpCQ4GgTXR5ZhE7D29ubmTNn8sEHH7BgwQJ8fX2ZNWsWRqORnj17kpKSIqVfjB071mlFqLa2lo8//hidTkd1dTUFBQX07NkTNzc3VqxYQXBwMKtXr6ZHjx6XZSkmhGDNmjUcO3aM6667jj179rBnzx4SEhJ499136d27NwkJCaSlpfH44487zUxI5vIgR0yfhQYfRUPukd1uP2PZolQqnfZi0ev1fPrpp+zbtw+1Ws2IESMYN24cer2ehQsXkpqaSrt27Xjsscdo27Zts9sjhGDlypX89ttvKJVKhBCo1Wruv/9+qqqq+OqrrzCZTFxzzTVMnDjRqWZCMs2PLEItmNraWpRKpeQHgvpt57q6Oilk4HLwdz8xhUIh5ch5eno6+pTJOABZhGRkZByKc64nZGRkrhhkEZKRkXEosgjJyMg4FFmEZGRkHIosQjIyMg5FFiEZGRmHIouQjIyMQ/k/Sc8SbYDrTzYAAAAodEVYdGljYzpjb3B5cmlnaHQAQ29weXJpZ2h0IEFwcGxlIEluYy4sIDIwMjOTs48KAAAAGHRFWHRpY2M6ZGVzY3JpcHRpb24ATEYzMlRVODeX9tpqAAAAGHRFWHR4bXA6UGl4ZWxYRGltZW5zaW9uADE0NDbei8i5AAAAGHRFWHR4bXA6UGl4ZWxZRGltZW5zaW9uADE3MTIfLJ1UAAAAGnRFWHR4bXA6VXNlckNvbW1lbnQAU2NyZWVuc2hvdNPgsnwAAAAASUVORK5CYII=;rotation=-25;" parent="1" vertex="1">
          <mxGeometry x="749.9970160815612" y="330.00449611277617" width="229" height="271" as="geometry" />
        </mxCell>
        <mxCell id="IIDY4cQQyGSsEYxzER7c-5" value="" style="endArrow=classic;html=1;rounded=0;" parent="1" edge="1">
          <mxGeometry width="50" height="50" relative="1" as="geometry">
            <mxPoint x="440" y="480" as="sourcePoint" />
            <mxPoint x="440" y="200" as="targetPoint" />
          </mxGeometry>
        </mxCell>
        <mxCell id="IIDY4cQQyGSsEYxzER7c-6" value="" style="endArrow=classic;html=1;rounded=0;" parent="1" edge="1">
          <mxGeometry width="50" height="50" relative="1" as="geometry">
            <mxPoint x="440" y="480" as="sourcePoint" />
            <mxPoint x="800" y="480" as="targetPoint" />
          </mxGeometry>
        </mxCell>
        <mxCell id="IIDY4cQQyGSsEYxzER7c-9" value="" style="endArrow=classic;html=1;rounded=0;" parent="1" edge="1">
          <mxGeometry width="50" height="50" relative="1" as="geometry">
            <mxPoint x="840" y="480" as="sourcePoint" />
            <mxPoint x="840" y="200" as="targetPoint" />
          </mxGeometry>
        </mxCell>
        <mxCell id="IIDY4cQQyGSsEYxzER7c-10" value="" style="endArrow=classic;html=1;rounded=0;" parent="1" edge="1">
          <mxGeometry width="50" height="50" relative="1" as="geometry">
            <mxPoint x="840" y="480" as="sourcePoint" />
            <mxPoint x="1200" y="480" as="targetPoint" />
          </mxGeometry>
        </mxCell>
        <mxCell id="IIDY4cQQyGSsEYxzER7c-24" value="" style="ellipse;whiteSpace=wrap;html=1;aspect=fixed;fillColor=none;strokeColor=#FF0000;" parent="1" vertex="1">
          <mxGeometry x="813" y="453" width="50" height="50" as="geometry" />
        </mxCell>
        <mxCell id="IIDY4cQQyGSsEYxzER7c-27" value="Position" style="rounded=1;whiteSpace=wrap;html=1;" parent="1" vertex="1">
          <mxGeometry x="1000" y="280" width="120" height="60" as="geometry" />
        </mxCell>
      </root>
    </mxGraphModel>
  </diagram>
</mxfile>
